<?xml version="1.0" encoding="UTF-8"?>
<!DOCTYPE svg PUBLIC "-//W3C//DTD SVG 1.1//EN" "http://www.w3.org/Graphics/SVG/1.1/DTD/svg11.dtd">
<svg xmlns="http://www.w3.org/2000/svg" version="1.1" width="800px" height="534px" style="shape-rendering:geometricPrecision; text-rendering:geometricPrecision; image-rendering:optimizeQuality; fill-rule:evenodd; clip-rule:evenodd" xmlns:xlink="http://www.w3.org/1999/xlink">
<g><path style="opacity:1" fill="#e77f08" d="M 538.5,116.5 C 538.622,117.803 538.622,119.136 538.5,120.5C 540.444,119.811 542.444,119.311 544.5,119C 543.167,118.667 541.833,118.333 540.5,118C 542.058,117.79 543.391,117.29 544.5,116.5C 586.5,116.5 628.5,116.5 670.5,116.5C 670.333,130.837 670.5,145.171 671,159.5C 686.029,146.751 701.529,146.251 717.5,158C 724.691,163.874 727.858,171.374 727,180.5C 724.705,183.797 722.038,186.797 719,189.5C 716.965,193.302 717.798,196.469 721.5,199C 725.882,200.716 728.882,203.716 730.5,208C 729.666,210.848 728,213.182 725.5,215C 722.088,216.455 718.921,218.288 716,220.5C 715.333,221.833 715.333,223.167 716,224.5C 717.666,226.996 719.5,229.329 721.5,231.5C 713.311,232.52 708.478,237.186 707,245.5C 706.055,253.177 705.055,260.843 704,268.5C 701.762,275.07 697.262,279.237 690.5,281C 689.167,281.667 689.167,282.333 690.5,283C 687.576,283.126 684.909,284.459 682.5,287C 681.552,287.483 680.552,287.649 679.5,287.5C 679.649,288.552 679.483,289.552 679,290.5C 678.667,290.167 678.333,289.833 678,289.5C 675.664,291.518 673.33,293.518 671,295.5C 670.5,308.496 670.333,321.496 670.5,334.5C 669.338,353.662 669.171,372.996 670,392.5C 670.995,393.066 671.828,393.733 672.5,394.5C 671.833,395.167 671.167,395.833 670.5,396.5C 669.839,398.134 669.506,399.967 669.5,402C 669.658,404.449 670.325,406.616 671.5,408.5C 671.167,408.5 670.833,408.5 670.5,408.5C 669.375,409.348 669.375,410.348 670.5,411.5C 669.28,413.05 669.28,414.716 670.5,416.5C 669.375,417.348 669.375,418.348 670.5,419.5C 670.5,419.833 670.5,420.167 670.5,420.5C 670.5,420.833 670.5,421.167 670.5,421.5C 669.375,422.348 669.375,423.348 670.5,424.5C 669.375,425.348 669.375,426.348 670.5,427.5C 670.5,427.833 670.5,428.167 670.5,428.5C 670.5,428.833 670.5,429.167 670.5,429.5C 669.375,430.348 669.375,431.348 670.5,432.5C 669.235,434.357 669.568,436.024 671.5,437.5C 671.167,437.5 670.833,437.5 670.5,437.5C 669.375,438.348 669.375,439.348 670.5,440.5C 670.5,440.833 670.5,441.167 670.5,441.5C 669.167,442.833 669.167,444.167 670.5,445.5C 669.375,446.348 669.375,447.348 670.5,448.5C 668.374,449.048 666.374,449.715 664.5,450.5C 663.833,450.5 663.167,450.5 662.5,450.5C 660.389,449.258 658.389,449.258 656.5,450.5C 655.833,450.5 655.167,450.5 654.5,450.5C 596.234,449.837 537.901,449.171 479.5,448.5C 484.792,447.505 490.125,447.172 495.5,447.5C 495.5,436.833 495.5,426.167 495.5,415.5C 490.167,415.5 484.833,415.5 479.5,415.5C 479.5,411.5 479.5,407.5 479.5,403.5C 474.125,403.828 468.792,403.495 463.5,402.5C 466.167,402.167 468.833,401.833 471.5,401.5C 495.663,400.916 519.663,400.249 543.5,399.5C 582.833,399.5 622.167,399.5 661.5,399.5C 661.667,308.166 661.5,216.833 661,125.5C 660.667,124.833 660.333,124.167 660,123.5C 617.571,124.663 575.071,124.83 532.5,124C 534.167,123 535.5,121.667 536.5,120C 535.423,119.53 534.423,119.697 533.5,120.5C 533.016,114.411 532.016,108.411 530.5,102.5C 530.833,101.833 531.167,101.167 531.5,100.5C 536.077,99.1311 540.744,98.1311 545.5,97.5C 546.442,97.6082 547.275,97.9415 548,98.5C 552.072,93.9233 556.572,89.9233 561.5,86.5C 561.5,86.1667 561.5,85.8333 561.5,85.5C 572.84,79.5116 579.84,70.1783 582.5,57.5C 582.729,54.4156 582.729,51.0822 582.5,47.5C 579.286,46.5596 576.286,45.0596 573.5,43C 571.84,41.5123 570.84,39.679 570.5,37.5C 570.756,35.2239 572.09,34.0572 574.5,34C 575.726,32.3651 577.059,30.8651 578.5,29.5C 582.747,31.5821 586.581,34.2488 590,37.5C 589.459,40.3921 587.959,42.8921 585.5,45C 588.055,56.3077 585.888,66.8077 579,76.5C 570.667,84.1667 562.333,91.8333 554,99.5C 551.065,104.218 550.232,109.218 551.5,114.5C 550.022,114.762 548.689,114.429 547.5,113.5C 546.77,110.891 546.27,108.224 546,105.5C 542.511,109.037 540.011,112.703 538.5,116.5 Z"/></g>
<g><path style="opacity:1" fill="#ca6e27" d="M 419.5,31.5 C 422.938,33.7589 426.271,36.2589 429.5,39C 427.037,42.4646 424.204,45.6312 421,48.5C 418.029,45.94 415.196,43.2733 412.5,40.5C 414.475,37.1951 416.809,34.1951 419.5,31.5 Z"/></g>
<g><path style="opacity:1" fill="#e37c0d" d="M 550.5,60.5 C 551.496,60.4142 552.329,60.7476 553,61.5C 554.38,68.779 555.214,76.1123 555.5,83.5C 549.619,83.7091 543.786,84.3758 538,85.5C 536.293,85.4915 534.793,85.1582 533.5,84.5C 538.397,75.9395 544.063,67.9395 550.5,60.5 Z"/></g>
<g><path style="opacity:1" fill="#ca927f" d="M 482.5,63.5 C 485.187,63.3359 487.854,63.5026 490.5,64C 472.748,67.751 462.581,78.5843 460,96.5C 458.779,85.5026 462.612,76.6693 471.5,70C 475.096,67.5394 478.763,65.3727 482.5,63.5 Z"/></g>
<g><path style="opacity:1" fill="#cc927d" d="M 387.5,58.5 C 389.089,57.3789 390.756,57.5456 392.5,59C 404.4,67.466 412.067,78.7993 415.5,93C 414.551,93.6172 413.718,93.4506 413,92.5C 408.837,77.8468 400.337,66.5135 387.5,58.5 Z"/></g>
<g><path style="opacity:1" fill="#e2883e" d="M 442.5,82.5 C 446.278,84.4433 449.278,87.2767 451.5,91C 449.385,94.1185 446.885,96.9518 444,99.5C 440.688,97.3547 437.854,94.688 435.5,91.5C 437.475,88.1951 439.809,85.1951 442.5,82.5 Z"/></g>
<g><path style="opacity:1" fill="#e58834" d="M 325.5,94.5 C 327.5,94.5 329.5,94.5 331.5,94.5C 331.5,95.8333 331.5,97.1667 331.5,98.5C 329.5,98.5 327.5,98.5 325.5,98.5C 325.5,97.1667 325.5,95.8333 325.5,94.5 Z"/></g>
<g><path style="opacity:1" fill="#e58a3e" d="M 318.5,98.5 C 316.219,98.9227 314.552,98.256 313.5,96.5C 315.042,95.6993 316.708,95.366 318.5,95.5C 318.5,96.5 318.5,97.5 318.5,98.5 Z"/></g>
<g><path style="opacity:1" fill="#e7842c" d="M 342.5,95.5 C 342.5,96.5 342.5,97.5 342.5,98.5C 340.833,98.5 339.167,98.5 337.5,98.5C 337.238,97.0222 337.571,95.6888 338.5,94.5C 339.736,95.2458 341.07,95.5792 342.5,95.5 Z"/></g>
<g><path style="opacity:1" fill="#e77e00" d="M 512.5,112.5 C 513.501,113.789 513.334,115.122 512,116.5C 505.968,125.921 499.468,134.921 492.5,143.5C 489.087,141.036 485.254,138.369 481,135.5C 479.68,135.799 478.18,135.966 476.5,136C 473.959,140.942 471.792,146.108 470,151.5C 462.912,165.754 453.079,177.754 440.5,187.5C 443.675,188.587 446.841,189.587 450,190.5C 454.673,189.664 459.173,188.331 463.5,186.5C 463.5,187.167 463.833,187.5 464.5,187.5C 461.597,189.648 458.264,191.148 454.5,192C 455.458,193.147 455.125,194.147 453.5,195C 454.269,197.926 455.935,200.093 458.5,201.5C 457.504,201.414 456.671,201.748 456,202.5C 455,204.5 454,206.5 453,208.5C 450.038,212.136 447.038,215.802 444,219.5C 443.219,220.944 443.386,222.277 444.5,223.5C 449.892,216.602 455.892,210.102 462.5,204C 461.944,203.617 461.611,203.117 461.5,202.5C 468.76,202.752 474.593,205.752 479,211.5C 479.333,211.167 479.667,210.833 480,210.5C 485.911,215.142 490.077,213.808 492.5,206.5C 491.167,204.833 489.833,203.167 488.5,201.5C 490.074,200.369 491.741,200.202 493.5,201C 493.167,201.333 492.833,201.667 492.5,202C 493.624,202.249 494.624,202.749 495.5,203.5C 496.502,207.547 498.835,208.88 502.5,207.5C 506.234,210.567 508.901,209.9 510.5,205.5C 508.013,201.196 509.347,200.363 514.5,203C 519.372,209.104 525.372,213.771 532.5,217C 535.036,217.339 537.536,217.839 540,218.5C 544.042,217.317 547.875,216.65 551.5,216.5C 561.296,243.886 571.296,271.22 581.5,298.5C 514.561,324.315 447.394,349.648 380,374.5C 364.304,335.589 349.47,296.256 335.5,256.5C 336.842,255.207 338.509,254.374 340.5,254C 352.167,251 363.833,248 375.5,245C 377.497,243.847 377.83,242.347 376.5,240.5C 373.641,239.821 371.141,238.488 369,236.5C 366.876,235.937 364.709,235.604 362.5,235.5C 353.1,236.042 343.6,237.042 334,238.5C 330.448,238.359 326.948,237.859 323.5,237C 338,233.79 352.333,229.79 366.5,225C 378.921,219.754 390.921,213.754 402.5,207C 405.904,204.433 408.738,201.266 411,197.5C 411.874,194.997 411.207,192.997 409,191.5C 401.065,193.316 393.065,195.982 385,199.5C 384.667,199.167 384.333,198.833 384,198.5C 379.209,199.93 374.376,201.263 369.5,202.5C 370.469,201.691 371.302,200.691 372,199.5C 372.333,199.833 372.667,200.167 373,200.5C 376.742,198.692 380.409,196.692 384,194.5C 384.333,194.833 384.667,195.167 385,195.5C 386.333,194.167 387.667,192.833 389,191.5C 389.414,191.957 389.914,192.291 390.5,192.5C 393.614,189.625 397.281,187.791 401.5,187C 401.982,185.992 402.148,184.825 402,183.5C 403.268,183.616 404.602,183.949 406,184.5C 406.645,183.354 407.478,182.354 408.5,181.5C 407.253,179.958 407.253,178.458 408.5,177C 406.5,176.833 404.5,176.667 402.5,176.5C 396.25,178.092 389.917,179.092 383.5,179.5C 383.561,176.95 384.894,175.45 387.5,175C 386.182,173.092 384.348,172.258 382,172.5C 370.444,174.583 359.61,178.249 349.5,183.5C 348.127,183.343 346.793,183.51 345.5,184C 340.547,186.279 335.714,188.779 331,191.5C 330.667,191.167 330.333,190.833 330,190.5C 325.907,192.46 322.074,194.794 318.5,197.5C 317.5,197.167 316.833,196.5 316.5,195.5C 318.667,193.167 320.833,190.833 323,188.5C 323.862,186.913 324.529,185.246 325,183.5C 325.333,183.833 325.667,184.167 326,184.5C 327.128,182.655 327.628,180.655 327.5,178.5C 329.681,178.716 331.347,177.883 332.5,176C 332.167,175.667 331.833,175.333 331.5,175C 333.732,171.609 335.732,168.109 337.5,164.5C 337.167,163.5 336.5,162.833 335.5,162.5C 333.833,163.333 332.167,164.167 330.5,165C 324.589,173.409 317.589,180.575 309.5,186.5C 307.905,183.715 306.905,180.715 306.5,177.5C 304.5,177.5 302.5,177.5 300.5,177.5C 300.223,174.552 300.556,171.719 301.5,169C 302.935,169.311 304.268,169.145 305.5,168.5C 306.192,169.025 306.692,169.692 307,170.5C 312.404,168.142 317.904,165.975 323.5,164C 322.484,163.481 321.818,162.647 321.5,161.5C 322.156,159.547 322.489,157.547 322.5,155.5C 324.167,155.5 325.833,155.5 327.5,155.5C 327.337,157.857 327.503,160.19 328,162.5C 330.007,161.331 332.173,160.665 334.5,160.5C 334.5,158.833 334.5,157.167 334.5,155.5C 336.821,155.229 338.821,155.896 340.5,157.5C 345.701,155.723 350.701,153.723 355.5,151.5C 361.33,151.338 363.663,148.338 362.5,142.5C 364.167,142.5 365.833,142.5 367.5,142.5C 367.34,144.199 367.506,145.866 368,147.5C 370.007,146.331 372.173,145.665 374.5,145.5C 374.5,144.5 374.5,143.5 374.5,142.5C 377.187,142.664 379.854,142.497 382.5,142C 396.972,136.57 411.305,131.07 425.5,125.5C 425.706,123.451 426.539,123.117 428,124.5C 430.281,123.504 432.114,122.17 433.5,120.5C 434.716,121.002 435.883,121.335 437,121.5C 439.3,119.397 441.8,117.73 444.5,116.5C 449.034,116.733 453.368,115.9 457.5,114C 473.737,107.963 489.903,101.796 506,95.5C 508.716,100.937 510.883,106.603 512.5,112.5 Z"/></g>
<g><path style="opacity:0.047" fill="#a7c1ef" d="M 313.5,96.5 C 314.552,98.256 316.219,98.9227 318.5,98.5C 316.735,99.4614 314.735,99.7947 312.5,99.5C 312.263,98.209 312.596,97.209 313.5,96.5 Z"/></g>
<g><path style="opacity:0.047" fill="#acbdf2" d="M 342.5,95.5 C 343.434,96.5676 343.768,97.901 343.5,99.5C 341.265,99.7947 339.265,99.4614 337.5,98.5C 339.167,98.5 340.833,98.5 342.5,98.5C 342.5,97.5 342.5,96.5 342.5,95.5 Z"/></g>
<g><path style="opacity:0.047" fill="#acbfec" d="M 349.5,98.5 C 350.386,97.2241 351.386,97.2241 352.5,98.5C 351.575,99.5624 350.575,99.5624 349.5,98.5 Z"/></g>
<g><path style="opacity:0.24" fill="#a6c7f6" d="M 302.5,111.5 C 302.5,108.833 302.5,106.167 302.5,103.5C 300.833,103.5 299.167,103.5 297.5,103.5C 297.5,106.167 297.5,108.833 297.5,111.5C 296.523,108.713 296.19,105.713 296.5,102.5C 298.833,102.5 301.167,102.5 303.5,102.5C 303.81,105.713 303.477,108.713 302.5,111.5 Z"/></g>
<g><path style="opacity:1" fill="#e77f00" d="M 302.5,111.5 C 300.833,111.5 299.167,111.5 297.5,111.5C 297.5,108.833 297.5,106.167 297.5,103.5C 299.167,103.5 300.833,103.5 302.5,103.5C 302.5,106.167 302.5,108.833 302.5,111.5 Z"/></g>
<g><path style="opacity:1" fill="#e77f00" d="M 309.5,103.5 C 311.167,103.5 312.833,103.5 314.5,103.5C 314.5,106.167 314.5,108.833 314.5,111.5C 312.833,111.5 311.167,111.5 309.5,111.5C 309.5,108.833 309.5,106.167 309.5,103.5 Z"/></g>
<g><path style="opacity:0.384" fill="#a8c1ec" d="M 309.5,103.5 C 311.265,102.539 313.265,102.205 315.5,102.5C 315.81,105.713 315.477,108.713 314.5,111.5C 314.5,108.833 314.5,106.167 314.5,103.5C 312.833,103.5 311.167,103.5 309.5,103.5 Z"/></g>
<g><path style="opacity:0.435" fill="#a5c2f0" d="M 327.5,103.5 C 325.833,103.5 324.167,103.5 322.5,103.5C 322.5,106.167 322.5,108.833 322.5,111.5C 321.523,108.713 321.19,105.713 321.5,102.5C 323.735,102.205 325.735,102.539 327.5,103.5 Z"/></g>
<g><path style="opacity:1" fill="#e77f00" d="M 327.5,103.5 C 327.5,106.167 327.5,108.833 327.5,111.5C 325.833,111.5 324.167,111.5 322.5,111.5C 322.5,108.833 322.5,106.167 322.5,103.5C 324.167,103.5 325.833,103.5 327.5,103.5 Z"/></g>
<g><path style="opacity:1" fill="#e77f00" d="M 346.5,103.5 C 348.167,103.5 349.833,103.5 351.5,103.5C 351.5,106.167 351.5,108.833 351.5,111.5C 349.833,111.5 348.167,111.5 346.5,111.5C 346.5,108.833 346.5,106.167 346.5,103.5 Z"/></g>
<g><path style="opacity:1" fill="#e77f00" d="M 364.5,103.5 C 364.5,106.167 364.5,108.833 364.5,111.5C 362.833,111.5 361.167,111.5 359.5,111.5C 359.5,108.833 359.5,106.167 359.5,103.5C 361.167,103.5 362.833,103.5 364.5,103.5 Z"/></g>
<g><path style="opacity:0.071" fill="#a8c1f1" d="M 339.5,111.5 C 339.5,108.833 339.5,106.167 339.5,103.5C 337.833,103.5 336.167,103.5 334.5,103.5C 334.5,106.167 334.5,108.833 334.5,111.5C 333.523,108.713 333.19,105.713 333.5,102.5C 335.833,102.5 338.167,102.5 340.5,102.5C 340.81,105.713 340.477,108.713 339.5,111.5 Z"/></g>
<g><path style="opacity:1" fill="#e77f00" d="M 339.5,111.5 C 337.833,111.5 336.167,111.5 334.5,111.5C 334.5,108.833 334.5,106.167 334.5,103.5C 336.167,103.5 337.833,103.5 339.5,103.5C 339.5,106.167 339.5,108.833 339.5,111.5 Z"/></g>
<g><path style="opacity:0.463" fill="#a1c3f6" d="M 346.5,103.5 C 348.265,102.539 350.265,102.205 352.5,102.5C 352.81,105.713 352.477,108.713 351.5,111.5C 351.5,108.833 351.5,106.167 351.5,103.5C 349.833,103.5 348.167,103.5 346.5,103.5 Z"/></g>
<g><path style="opacity:0.251" fill="#a5c0fb" d="M 364.5,103.5 C 362.833,103.5 361.167,103.5 359.5,103.5C 359.5,106.167 359.5,108.833 359.5,111.5C 358.523,108.713 358.19,105.713 358.5,102.5C 360.735,102.205 362.735,102.539 364.5,103.5 Z"/></g>
<g><path style="opacity:1" fill="#e48b42" d="M 289.5,106.5 C 290.451,107.919 290.784,109.585 290.5,111.5C 288.473,111.662 286.473,111.495 284.5,111C 286.063,109.264 287.73,107.764 289.5,106.5 Z"/></g>
<g><path style="opacity:1" fill="#e19358" d="M 371.5,108.5 C 376.421,110.354 376.421,111.354 371.5,111.5C 371.5,110.5 371.5,109.5 371.5,108.5 Z"/></g>
<g><path style="opacity:1" fill="#e34745" d="M 570.5,37.5 C 570.84,39.679 571.84,41.5123 573.5,43C 576.286,45.0596 579.286,46.5596 582.5,47.5C 582.729,51.0822 582.729,54.4156 582.5,57.5C 575.025,66.4372 568.025,75.7705 561.5,85.5C 560.167,85.8333 560.167,86.1667 561.5,86.5C 556.572,89.9233 552.072,93.9233 548,98.5C 547.275,97.9415 546.442,97.6082 545.5,97.5C 540.744,98.1311 536.077,99.1311 531.5,100.5C 531.167,101.167 530.833,101.833 530.5,102.5C 532.016,108.411 533.016,114.411 533.5,120.5C 529.53,125.476 525.53,130.476 521.5,135.5C 518.866,137.969 516.366,140.636 514,143.5C 514.924,145.809 514.091,147.476 511.5,148.5C 502.698,158.81 494.031,169.31 485.5,180C 480.203,182.33 474.869,184.664 469.5,187C 467.866,187.494 466.199,187.66 464.5,187.5C 463.833,187.5 463.5,187.167 463.5,186.5C 472.919,171.994 482.586,157.661 492.5,143.5C 499.468,134.921 505.968,125.921 512,116.5C 513.334,115.122 513.501,113.789 512.5,112.5C 519.5,103.167 526.5,93.8333 533.5,84.5C 534.793,85.1582 536.293,85.4915 538,85.5C 543.786,84.3758 549.619,83.7091 555.5,83.5C 555.214,76.1123 554.38,68.779 553,61.5C 552.329,60.7476 551.496,60.4142 550.5,60.5C 554.718,52.5899 560.052,45.4232 566.5,39C 567.745,38.2086 569.078,37.7086 570.5,37.5 Z"/></g>
<g><path style="opacity:1" fill="#e77f00" d="M 571.5,49.5 C 574.652,52.4491 576.152,56.1158 576,60.5C 572.477,62.5614 568.644,63.3947 564.5,63C 562.792,59.2616 562.458,55.4282 563.5,51.5C 566.311,50.9204 568.977,50.2537 571.5,49.5 Z"/></g>
<g><path style="opacity:0.946" fill="#edeeee" d="M 277.5,116.5 C 275.949,118.913 275.283,121.579 275.5,124.5C 276.791,124.263 277.791,124.596 278.5,125.5C 240.161,125.167 201.828,125.5 163.5,126.5C 164.165,183.03 164.831,239.53 165.5,296C 163.381,296.342 163.047,297.175 164.5,298.5C 163.764,301.695 163.097,305.029 162.5,308.5C 159.988,309.795 157.321,310.461 154.5,310.5C 154.667,288.831 154.5,267.164 154,245.5C 152.25,243.266 150.75,240.932 149.5,238.5C 151.203,239.66 151.869,238.993 151.5,236.5C 152.458,236.953 153.292,237.619 154,238.5C 154.5,197.835 154.667,157.168 154.5,116.5C 195.5,116.5 236.5,116.5 277.5,116.5 Z"/></g>
<g><path style="opacity:1" fill="#e77f00" d="M 277.5,116.5 C 278.833,116.5 280.167,116.5 281.5,116.5C 281.232,119.119 281.565,121.619 282.5,124C 281.255,124.791 279.922,125.291 278.5,125.5C 277.791,124.596 276.791,124.263 275.5,124.5C 275.283,121.579 275.949,118.913 277.5,116.5 Z"/></g>
<g><path style="opacity:1" fill="#e77f00" d="M 362.5,116.5 C 364.5,116.5 366.5,116.5 368.5,116.5C 368.5,118.833 368.5,121.167 368.5,123.5C 370.5,123.5 372.5,123.5 374.5,123.5C 373.933,121.031 373.933,118.698 374.5,116.5C 376.833,116.5 379.167,116.5 381.5,116.5C 381.208,118.957 381.208,121.624 381.5,124.5C 375.577,124.352 369.577,124.519 363.5,125C 361.82,124.653 360.82,123.653 360.5,122C 361.32,120.2 361.986,118.366 362.5,116.5 Z"/></g>
<g><path style="opacity:0.959" fill="#e4e3e1" d="M 381.5,116.5 C 402.5,116.5 423.5,116.5 444.5,116.5C 441.8,117.73 439.3,119.397 437,121.5C 435.883,121.335 434.716,121.002 433.5,120.5C 432.114,122.17 430.281,123.504 428,124.5C 426.539,123.117 425.706,123.451 425.5,125.5C 410.755,125.816 396.088,125.483 381.5,124.5C 381.208,121.624 381.208,118.957 381.5,116.5 Z"/></g>
<g><path style="opacity:0.729" fill="#e1dfe0" d="M 538.5,116.5 C 540.5,116.5 542.5,116.5 544.5,116.5C 543.391,117.29 542.058,117.79 540.5,118C 541.833,118.333 543.167,118.667 544.5,119C 542.444,119.311 540.444,119.811 538.5,120.5C 538.622,119.136 538.622,117.803 538.5,116.5 Z"/></g>
<g><path style="opacity:1" fill="#e2e3e7" d="M 368.5,116.5 C 370.5,116.5 372.5,116.5 374.5,116.5C 373.933,118.698 373.933,121.031 374.5,123.5C 372.5,123.5 370.5,123.5 368.5,123.5C 368.5,121.167 368.5,118.833 368.5,116.5 Z"/></g>
<g><path style="opacity:1" fill="#fef0f1" d="M 515.5,118.5 C 517.144,118.286 518.644,118.62 520,119.5C 520.497,121.81 520.663,124.143 520.5,126.5C 514.073,128.238 511.406,125.905 512.5,119.5C 513.791,119.737 514.791,119.404 515.5,118.5 Z"/></g>
<g><path style="opacity:1" fill="#fefefe" d="M 281.5,116.5 C 283.833,116.5 286.167,116.5 288.5,116.5C 288.768,119.119 288.435,121.619 287.5,124C 289.333,125.788 291.333,125.954 293.5,124.5C 294.923,121.786 295.257,119.119 294.5,116.5C 296.5,116.5 298.5,116.5 300.5,116.5C 300.364,118.932 300.031,121.432 299.5,124C 302.053,125.656 304.719,125.823 307.5,124.5C 307.739,122.533 307.406,120.699 306.5,119C 307.381,118.292 308.047,117.458 308.5,116.5C 309.833,116.5 311.167,116.5 312.5,116.5C 312.187,119.247 312.52,121.914 313.5,124.5C 315.644,125.953 317.477,125.62 319,123.5C 319.334,121.153 319.167,118.819 318.5,116.5C 320.833,116.5 323.167,116.5 325.5,116.5C 324.565,119.113 324.398,121.779 325,124.5C 326.796,125.767 328.629,125.767 330.5,124.5C 331.134,122.433 332.134,120.6 333.5,119C 332.244,118.583 331.577,117.75 331.5,116.5C 333.167,116.5 334.833,116.5 336.5,116.5C 335.599,125.383 339.266,127.883 347.5,124C 346.207,123.51 344.873,123.343 343.5,123.5C 344.082,121.002 344.082,118.669 343.5,116.5C 345.5,116.5 347.5,116.5 349.5,116.5C 349.768,119.119 349.435,121.619 348.5,124C 350.594,125.352 352.927,125.852 355.5,125.5C 355.892,122.324 355.892,119.324 355.5,116.5C 357.833,116.5 360.167,116.5 362.5,116.5C 361.986,118.366 361.32,120.2 360.5,122C 360.82,123.653 361.82,124.653 363.5,125C 369.577,124.519 375.577,124.352 381.5,124.5C 396.088,125.483 410.755,125.816 425.5,125.5C 411.305,131.07 396.972,136.57 382.5,142C 379.854,142.497 377.187,142.664 374.5,142.5C 374.5,143.5 374.5,144.5 374.5,145.5C 372.173,145.665 370.007,146.331 368,147.5C 367.506,145.866 367.34,144.199 367.5,142.5C 365.833,142.5 364.167,142.5 362.5,142.5C 363.663,148.338 361.33,151.338 355.5,151.5C 350.701,153.723 345.701,155.723 340.5,157.5C 338.821,155.896 336.821,155.229 334.5,155.5C 334.5,157.167 334.5,158.833 334.5,160.5C 332.173,160.665 330.007,161.331 328,162.5C 327.503,160.19 327.337,157.857 327.5,155.5C 325.833,155.5 324.167,155.5 322.5,155.5C 322.489,157.547 322.156,159.547 321.5,161.5C 321.818,162.647 322.484,163.481 323.5,164C 317.904,165.975 312.404,168.142 307,170.5C 306.692,169.692 306.192,169.025 305.5,168.5C 304.268,169.145 302.935,169.311 301.5,169C 300.556,171.719 300.223,174.552 300.5,177.5C 302.5,177.5 304.5,177.5 306.5,177.5C 306.905,180.715 307.905,183.715 309.5,186.5C 303.836,190.178 298.503,194.178 293.5,198.5C 293.5,197.5 293.5,196.5 293.5,195.5C 291.833,195.5 290.167,195.5 288.5,195.5C 288.5,198.167 288.5,200.833 288.5,203.5C 284.65,206.261 280.983,209.261 277.5,212.5C 278.397,207.53 277.063,206.53 273.5,209.5C 274.952,210.94 275.952,212.606 276.5,214.5C 266.66,222.663 258.327,231.996 251.5,242.5C 248.108,237.395 244.941,232.062 242,226.5C 226.533,234.148 211.367,242.148 196.5,250.5C 208.47,273.771 220.47,297.104 232.5,320.5C 247.631,313.186 262.465,305.519 277,297.5C 274.566,291.275 272.066,284.942 269.5,278.5C 290.707,268.902 312.707,261.569 335.5,256.5C 349.47,296.256 364.304,335.589 380,374.5C 447.394,349.648 514.561,324.315 581.5,298.5C 571.296,271.22 561.296,243.886 551.5,216.5C 559.852,215.082 568.186,213.749 576.5,212.5C 576.167,225.85 576.501,239.183 577.5,252.5C 593.906,253.6 610.573,253.767 627.5,253C 628.495,226.574 628.828,200.074 628.5,173.5C 611.167,173.5 593.833,173.5 576.5,173.5C 576.5,178.167 576.5,182.833 576.5,187.5C 574.473,187.662 572.473,187.495 570.5,187C 567.446,184.806 564.112,183.139 560.5,182C 552.681,172.692 545.348,163.026 538.5,153C 534.637,151.646 530.637,151.146 526.5,151.5C 524.841,146.177 523.174,140.844 521.5,135.5C 525.53,130.476 529.53,125.476 533.5,120.5C 534.423,119.697 535.423,119.53 536.5,120C 535.5,121.667 534.167,123 532.5,124C 575.071,124.83 617.571,124.663 660,123.5C 660.333,124.167 660.667,124.833 661,125.5C 661.5,216.833 661.667,308.166 661.5,399.5C 622.167,399.5 582.833,399.5 543.5,399.5C 484.833,399.5 426.167,399.5 367.5,399.5C 316.5,399.5 265.5,399.5 214.5,399.5C 212.066,396.829 209.733,393.996 207.5,391C 206.167,390.333 204.833,389.667 203.5,389C 195.087,389.349 186.754,390.516 178.5,392.5C 175.447,392.769 172.78,391.936 170.5,390C 174.419,388.46 177.919,386.293 181,383.5C 182.544,379.188 181.044,377.022 176.5,377C 181.214,373.173 181.547,369.173 177.5,365C 173.855,364.281 170.188,363.781 166.5,363.5C 165.949,360.193 165.616,356.86 165.5,353.5C 169.586,353.116 173.586,352.283 177.5,351C 181.114,348.475 181.114,346.141 177.5,344C 173.27,342.956 169.103,341.789 165,340.5C 164.501,335.177 164.334,329.844 164.5,324.5C 169.675,324.728 174.675,323.895 179.5,322C 185.014,318.181 184.681,314.847 178.5,312C 173.928,310.627 169.261,309.794 164.5,309.5C 164.5,305.833 164.5,302.167 164.5,298.5C 163.047,297.175 163.381,296.342 165.5,296C 164.831,239.53 164.165,183.03 163.5,126.5C 201.828,125.5 240.161,125.167 278.5,125.5C 279.922,125.291 281.255,124.791 282.5,124C 281.565,121.619 281.232,119.119 281.5,116.5 Z"/></g>
<g><path style="opacity:1" fill="#e77f00" d="M 349.5,116.5 C 351.5,116.5 353.5,116.5 355.5,116.5C 355.892,119.324 355.892,122.324 355.5,125.5C 352.927,125.852 350.594,125.352 348.5,124C 349.435,121.619 349.768,119.119 349.5,116.5 Z"/></g>
<g><path style="opacity:1" fill="#e77f00" d="M 336.5,116.5 C 338.833,116.5 341.167,116.5 343.5,116.5C 344.082,118.669 344.082,121.002 343.5,123.5C 344.873,123.343 346.207,123.51 347.5,124C 339.266,127.883 335.599,125.383 336.5,116.5 Z"/></g>
<g><path style="opacity:1" fill="#e77f00" d="M 325.5,116.5 C 327.5,116.5 329.5,116.5 331.5,116.5C 331.577,117.75 332.244,118.583 333.5,119C 332.134,120.6 331.134,122.433 330.5,124.5C 328.629,125.767 326.796,125.767 325,124.5C 324.398,121.779 324.565,119.113 325.5,116.5 Z"/></g>
<g><path style="opacity:1" fill="#e77f00" d="M 312.5,116.5 C 314.5,116.5 316.5,116.5 318.5,116.5C 319.167,118.819 319.334,121.153 319,123.5C 317.477,125.62 315.644,125.953 313.5,124.5C 312.52,121.914 312.187,119.247 312.5,116.5 Z"/></g>
<g><path style="opacity:1" fill="#e77f00" d="M 300.5,116.5 C 303.167,116.5 305.833,116.5 308.5,116.5C 308.047,117.458 307.381,118.292 306.5,119C 307.406,120.699 307.739,122.533 307.5,124.5C 304.719,125.823 302.053,125.656 299.5,124C 300.031,121.432 300.364,118.932 300.5,116.5 Z"/></g>
<g><path style="opacity:1" fill="#e77f00" d="M 288.5,116.5 C 290.5,116.5 292.5,116.5 294.5,116.5C 295.257,119.119 294.923,121.786 293.5,124.5C 291.333,125.954 289.333,125.788 287.5,124C 288.435,121.619 288.768,119.119 288.5,116.5 Z"/></g>
<g><path style="opacity:1" fill="#e77f00" d="M 272.5,129.5 C 274.75,129.181 276.75,129.681 278.5,131C 277.577,133.041 277.244,135.208 277.5,137.5C 275.833,137.5 274.167,137.5 272.5,137.5C 272.5,134.833 272.5,132.167 272.5,129.5 Z"/></g>
<g><path style="opacity:1" fill="#e77f00" d="M 284.5,129.5 C 286.5,129.5 288.5,129.5 290.5,129.5C 290.5,132.167 290.5,134.833 290.5,137.5C 288.533,137.739 286.699,137.406 285,136.5C 284.503,134.19 284.337,131.857 284.5,129.5 Z"/></g>
<g><path style="opacity:1" fill="#e77f00" d="M 297.5,129.5 C 299.167,129.5 300.833,129.5 302.5,129.5C 302.5,132.167 302.5,134.833 302.5,137.5C 300.833,137.5 299.167,137.5 297.5,137.5C 297.5,134.833 297.5,132.167 297.5,129.5 Z"/></g>
<g><path style="opacity:1" fill="#e77f00" d="M 309.5,129.5 C 311.527,129.338 313.527,129.505 315.5,130C 314.22,132.132 314.22,134.298 315.5,136.5C 313.604,137.466 311.604,137.799 309.5,137.5C 309.5,134.833 309.5,132.167 309.5,129.5 Z"/></g>
<g><path style="opacity:1" fill="#e77f00" d="M 322.5,129.5 C 324.167,129.5 325.833,129.5 327.5,129.5C 327.5,132.167 327.5,134.833 327.5,137.5C 321.612,137.742 319.945,135.076 322.5,129.5 Z"/></g>
<g><path style="opacity:1" fill="#e77f00" d="M 334.5,129.5 C 336.167,129.5 337.833,129.5 339.5,129.5C 339.5,132.167 339.5,134.833 339.5,137.5C 337.833,137.5 336.167,137.5 334.5,137.5C 334.5,134.833 334.5,132.167 334.5,129.5 Z"/></g>
<g><path style="opacity:1" fill="#e77f00" d="M 346.5,129.5 C 352.245,128.825 353.911,131.159 351.5,136.5C 349.955,137.452 348.288,137.785 346.5,137.5C 346.5,134.833 346.5,132.167 346.5,129.5 Z"/></g>
<g><path style="opacity:1" fill="#e77f00" d="M 359.5,129.5 C 361.167,129.5 362.833,129.5 364.5,129.5C 364.5,132.167 364.5,134.833 364.5,137.5C 362.833,137.5 361.167,137.5 359.5,137.5C 359.5,134.833 359.5,132.167 359.5,129.5 Z"/></g>
<g><path style="opacity:1" fill="#e77f00" d="M 371.5,129.5 C 373.167,129.5 374.833,129.5 376.5,129.5C 376.5,132.167 376.5,134.833 376.5,137.5C 374.833,137.5 373.167,137.5 371.5,137.5C 371.5,134.833 371.5,132.167 371.5,129.5 Z"/></g>
<g><path style="opacity:1" fill="#e77f00" d="M 383.5,129.5 C 385.5,129.5 387.5,129.5 389.5,129.5C 389.5,132.167 389.5,134.833 389.5,137.5C 387.5,137.5 385.5,137.5 383.5,137.5C 383.5,134.833 383.5,132.167 383.5,129.5 Z"/></g>
<g><path style="opacity:0.372" fill="#bbc4e0" d="M 121.5,128.5 C 128.084,128.243 133.584,130.577 138,135.5C 138.995,138.126 139.328,140.793 139,143.5C 134.765,145.784 131.265,148.284 128.5,151C 129.167,151.333 129.833,151.667 130.5,152C 129.377,153.044 128.044,153.71 126.5,154C 127.448,154.483 128.448,154.649 129.5,154.5C 129.773,156.451 129.107,157.951 127.5,159C 128.308,159.308 128.975,159.808 129.5,160.5C 128.663,162.505 127.163,163.505 125,163.5C 115.534,164.124 108.367,161.124 103.5,154.5C 106.131,152.995 105.797,152.329 102.5,152.5C 102.5,151.167 102.5,149.833 102.5,148.5C 106.5,148.167 106.5,147.833 102.5,147.5C 102.674,145.139 103.007,142.806 103.5,140.5C 106.598,140.587 106.932,140.087 104.5,139C 105.623,137.956 106.956,137.29 108.5,137C 107.833,136.667 107.167,136.333 106.5,136C 108.517,135.326 110.183,134.159 111.5,132.5C 115.067,131.457 118.4,130.123 121.5,128.5 Z"/></g>
<g><path style="opacity:1" fill="#e67e01" d="M 521.5,135.5 C 523.174,140.844 524.841,146.177 526.5,151.5C 521.23,151.237 516.23,150.237 511.5,148.5C 514.091,147.476 514.924,145.809 514,143.5C 516.366,140.636 518.866,137.969 521.5,135.5 Z"/></g>
<g><path style="opacity:1" fill="#e77f00" d="M 263.5,142.5 C 265.467,142.261 267.301,142.594 269,143.5C 269.769,146.099 269.602,148.599 268.5,151C 266.888,151.72 265.388,151.554 264,150.5C 263.503,147.854 263.336,145.187 263.5,142.5 Z"/></g>
<g><path style="opacity:1" fill="#e77f00" d="M 275.5,142.5 C 277.5,142.5 279.5,142.5 281.5,142.5C 281.664,145.187 281.497,147.854 281,150.5C 279.035,151.885 277.202,151.718 275.5,150C 275.892,147.646 275.892,145.146 275.5,142.5 Z"/></g>
<g><path style="opacity:1" fill="#e77f00" d="M 288.5,142.5 C 290.167,142.5 291.833,142.5 293.5,142.5C 293.5,145.5 293.5,148.5 293.5,151.5C 291.833,151.5 290.167,151.5 288.5,151.5C 288.5,148.5 288.5,145.5 288.5,142.5 Z"/></g>
<g><path style="opacity:1" fill="#e77f00" d="M 300.5,142.5 C 302.467,142.261 304.301,142.594 306,143.5C 306.497,146.146 306.664,148.813 306.5,151.5C 304.5,151.5 302.5,151.5 300.5,151.5C 300.5,148.5 300.5,145.5 300.5,142.5 Z"/></g>
<g><path style="opacity:1" fill="#e77f00" d="M 313.5,142.5 C 315.167,142.5 316.833,142.5 318.5,142.5C 318.5,145.5 318.5,148.5 318.5,151.5C 316.833,151.5 315.167,151.5 313.5,151.5C 313.5,148.5 313.5,145.5 313.5,142.5 Z"/></g>
<g><path style="opacity:1" fill="#e77f00" d="M 325.5,142.5 C 327.167,142.5 328.833,142.5 330.5,142.5C 330.232,145.119 330.565,147.619 331.5,150C 329.75,151.319 327.75,151.819 325.5,151.5C 325.5,148.5 325.5,145.5 325.5,142.5 Z"/></g>
<g><path style="opacity:1" fill="#e77f00" d="M 337.5,142.5 C 339.5,142.5 341.5,142.5 343.5,142.5C 343.664,145.187 343.497,147.854 343,150.5C 341.301,151.406 339.467,151.739 337.5,151.5C 337.5,148.5 337.5,145.5 337.5,142.5 Z"/></g>
<g><path style="opacity:1" fill="#e77f00" d="M 355.5,151.5 C 353.833,151.5 352.167,151.5 350.5,151.5C 350.5,148.5 350.5,145.5 350.5,142.5C 352.167,142.5 353.833,142.5 355.5,142.5C 355.5,145.5 355.5,148.5 355.5,151.5 Z"/></g>
<g><path style="opacity:1" fill="#fdbcb5" d="M 511.5,148.5 C 516.23,150.237 521.23,151.237 526.5,151.5C 530.637,151.146 534.637,151.646 538.5,153C 545.348,163.026 552.681,172.692 560.5,182C 564.112,183.139 567.446,184.806 570.5,187C 572.473,187.495 574.473,187.662 576.5,187.5C 575.756,195.731 575.756,204.064 576.5,212.5C 568.186,213.749 559.852,215.082 551.5,216.5C 547.875,216.65 544.042,217.317 540,218.5C 537.536,217.839 535.036,217.339 532.5,217C 525.372,213.771 519.372,209.104 514.5,203C 509.347,200.363 508.013,201.196 510.5,205.5C 508.901,209.9 506.234,210.567 502.5,207.5C 498.835,208.88 496.502,207.547 495.5,203.5C 494.624,202.749 493.624,202.249 492.5,202C 492.833,201.667 493.167,201.333 493.5,201C 491.741,200.202 490.074,200.369 488.5,201.5C 489.833,203.167 491.167,204.833 492.5,206.5C 490.077,213.808 485.911,215.142 480,210.5C 479.667,210.833 479.333,211.167 479,211.5C 474.593,205.752 468.76,202.752 461.5,202.5C 460.391,202.443 459.391,202.11 458.5,201.5C 455.935,200.093 454.269,197.926 453.5,195C 455.125,194.147 455.458,193.147 454.5,192C 458.264,191.148 461.597,189.648 464.5,187.5C 466.199,187.66 467.866,187.494 469.5,187C 474.869,184.664 480.203,182.33 485.5,180C 494.031,169.31 502.698,158.81 511.5,148.5 Z"/></g>
<g><path style="opacity:1" fill="#e77f00" d="M 260.5,155.5 C 262.167,155.5 263.833,155.5 265.5,155.5C 265.5,158.167 265.5,160.833 265.5,163.5C 263.833,163.5 262.167,163.5 260.5,163.5C 260.5,160.833 260.5,158.167 260.5,155.5 Z"/></g>
<g><path style="opacity:1" fill="#e77f00" d="M 272.5,155.5 C 274.167,155.5 275.833,155.5 277.5,155.5C 277.5,158.167 277.5,160.833 277.5,163.5C 275.833,163.5 274.167,163.5 272.5,163.5C 272.5,160.833 272.5,158.167 272.5,155.5 Z"/></g>
<g><path style="opacity:1" fill="#e77f00" d="M 284.5,155.5 C 286.5,155.5 288.5,155.5 290.5,155.5C 290.5,158.167 290.5,160.833 290.5,163.5C 288.5,163.5 286.5,163.5 284.5,163.5C 284.5,160.833 284.5,158.167 284.5,155.5 Z"/></g>
<g><path style="opacity:1" fill="#e77f00" d="M 297.5,155.5 C 299.167,155.5 300.833,155.5 302.5,155.5C 302.5,158.167 302.5,160.833 302.5,163.5C 300.799,163.966 299.299,163.966 298,163.5C 297.503,160.854 297.336,158.187 297.5,155.5 Z"/></g>
<g><path style="opacity:1" fill="#e77f00" d="M 309.5,155.5 C 311.467,155.261 313.301,155.594 315,156.5C 315.497,158.81 315.663,161.143 315.5,163.5C 313.459,163.854 311.626,163.854 310,163.5C 309.503,160.854 309.336,158.187 309.5,155.5 Z"/></g>
<g><path style="opacity:1" fill="#e77f00" d="M 265.5,168.5 C 267.103,168.312 268.437,168.812 269.5,170C 269.255,171.911 269.255,173.911 269.5,176C 267.75,177.319 265.75,177.819 263.5,177.5C 263.091,174.145 263.758,171.145 265.5,168.5 Z"/></g>
<g><path style="opacity:1" fill="#e77f00" d="M 276.5,168.5 C 278.167,168.5 279.833,168.5 281.5,168.5C 281.5,171.5 281.5,174.5 281.5,177.5C 279.473,177.662 277.473,177.495 275.5,177C 276.237,174.297 276.57,171.464 276.5,168.5 Z"/></g>
<g><path style="opacity:1" fill="#e77f00" d="M 288.5,168.5 C 290.144,168.286 291.644,168.62 293,169.5C 293.497,172.146 293.664,174.813 293.5,177.5C 291.833,177.5 290.167,177.5 288.5,177.5C 288.5,174.5 288.5,171.5 288.5,168.5 Z"/></g>
<g><path style="opacity:1" fill="#e77f00" d="M 576.5,212.5 C 575.756,204.064 575.756,195.731 576.5,187.5C 576.5,182.833 576.5,178.167 576.5,173.5C 593.833,173.5 611.167,173.5 628.5,173.5C 628.828,200.074 628.495,226.574 627.5,253C 610.573,253.767 593.906,253.6 577.5,252.5C 576.501,239.183 576.167,225.85 576.5,212.5 Z"/></g>
<g><path style="opacity:1" fill="#fcbdb6" d="M 492.5,143.5 C 482.586,157.661 472.919,171.994 463.5,186.5C 459.173,188.331 454.673,189.664 450,190.5C 446.841,189.587 443.675,188.587 440.5,187.5C 453.079,177.754 462.912,165.754 470,151.5C 471.792,146.108 473.959,140.942 476.5,136C 478.18,135.966 479.68,135.799 481,135.5C 485.254,138.369 489.087,141.036 492.5,143.5 Z"/></g>
<g><path style="opacity:0.967" fill="#dceaf9" d="M 151.5,236.5 C 151.869,238.993 151.203,239.66 149.5,238.5C 146.143,235.981 142.643,233.648 139,231.5C 133.71,239.291 127.21,245.957 119.5,251.5C 119.167,251.167 118.833,250.833 118.5,250.5C 120.639,245.054 122.639,239.554 124.5,234C 123.941,231.812 122.607,231.146 120.5,232C 117.335,239.329 114.668,246.829 112.5,254.5C 108.493,255.613 104.493,255.613 100.5,254.5C 103.544,245.865 106.877,237.365 110.5,229C 109.013,224.501 107.179,224.334 105,228.5C 102.245,237.106 98.9114,245.44 95,253.5C 92.3723,251.874 90.039,249.874 88,247.5C 90.5802,238.583 93.0802,229.583 95.5,220.5C 93.8561,220.286 92.3561,220.62 91,221.5C 88.5297,228.578 85.863,235.578 83,242.5C 80.5791,238.66 78.4125,234.66 76.5,230.5C 78.1667,225.833 79.8333,221.167 81.5,216.5C 80.6518,214.717 79.3185,214.217 77.5,215C 76.259,217.563 74.9256,220.063 73.5,222.5C 70.1671,213.659 66.1671,205.159 61.5,197C 70.4942,192.663 79.4942,188.663 88.5,185C 87.1667,188 85.8333,191 84.5,194C 85.6174,195.892 87.2841,196.725 89.5,196.5C 90.0653,192.463 91.3987,188.797 93.5,185.5C 93.2907,183.286 94.124,181.619 96,180.5C 99.2206,178.89 102.554,177.557 106,176.5C 106.5,176.833 107,177.167 107.5,177.5C 104.635,184.762 101.968,192.096 99.5,199.5C 100.286,202.975 101.786,203.308 104,200.5C 105.566,195.944 107.399,191.61 109.5,187.5C 110.268,188.263 110.768,189.263 111,190.5C 111.796,187.961 111.629,185.628 110.5,183.5C 111.358,180.95 112.358,178.45 113.5,176C 117.236,175.39 120.903,175.723 124.5,177C 120.642,186.237 116.975,195.571 113.5,205C 115.476,208.357 117.31,208.191 119,204.5C 121.755,195.894 125.089,187.56 129,179.5C 131.333,181.833 133.667,184.167 136,186.5C 134.303,193.929 131.969,201.263 129,208.5C 128.037,213.226 129.37,214.226 133,211.5C 134.951,205.638 137.285,199.971 140,194.5C 144.685,205.387 144.519,216.221 139.5,227C 143.975,229.65 147.975,232.817 151.5,236.5 Z"/></g>
<g><path style="opacity:1" fill="#e77f00" d="M 260.5,181.5 C 262.167,181.5 263.833,181.5 265.5,181.5C 265.5,184.5 265.5,187.5 265.5,190.5C 264.325,190.719 263.325,190.386 262.5,189.5C 261.518,186.904 260.851,184.238 260.5,181.5 Z"/></g>
<g><path style="opacity:1" fill="#e77f00" d="M 272.5,181.5 C 274.167,181.5 275.833,181.5 277.5,181.5C 277.5,184.5 277.5,187.5 277.5,190.5C 275.833,190.5 274.167,190.5 272.5,190.5C 272.5,187.5 272.5,184.5 272.5,181.5 Z"/></g>
<g><path style="opacity:1" fill="#e77f00" d="M 284.5,181.5 C 286.5,181.5 288.5,181.5 290.5,181.5C 290.5,184.5 290.5,187.5 290.5,190.5C 288.533,190.739 286.699,190.406 285,189.5C 284.503,186.854 284.336,184.187 284.5,181.5 Z"/></g>
<g><path style="opacity:1" fill="#e77f00" d="M 297.5,181.5 C 299.201,181.966 300.701,181.966 302,181.5C 302.498,184.482 302.665,187.482 302.5,190.5C 300.833,190.5 299.167,190.5 297.5,190.5C 297.5,187.5 297.5,184.5 297.5,181.5 Z"/></g>
<g><path style="opacity:1" fill="#f8afa9" d="M 369.5,202.5 C 368.883,202.389 368.383,202.056 368,201.5C 362.883,206.641 356.717,208.808 349.5,208C 348.691,202.583 348.191,197.083 348,191.5C 347.682,189.939 346.849,188.772 345.5,188C 347.041,186.629 348.375,185.129 349.5,183.5C 359.61,178.249 370.444,174.583 382,172.5C 384.348,172.258 386.182,173.092 387.5,175C 384.894,175.45 383.561,176.95 383.5,179.5C 389.917,179.092 396.25,178.092 402.5,176.5C 404.5,176.667 406.5,176.833 408.5,177C 407.253,178.458 407.253,179.958 408.5,181.5C 407.478,182.354 406.645,183.354 406,184.5C 404.602,183.949 403.268,183.616 402,183.5C 402.148,184.825 401.982,185.992 401.5,187C 397.281,187.791 393.614,189.625 390.5,192.5C 389.914,192.291 389.414,191.957 389,191.5C 387.667,192.833 386.333,194.167 385,195.5C 384.667,195.167 384.333,194.833 384,194.5C 380.409,196.692 376.742,198.692 373,200.5C 372.667,200.167 372.333,199.833 372,199.5C 371.302,200.691 370.469,201.691 369.5,202.5 Z"/></g>
<g><path style="opacity:1" fill="#eb913c" d="M 110.5,183.5 C 111.629,185.628 111.796,187.961 111,190.5C 110.768,189.263 110.268,188.263 109.5,187.5C 109.433,186.041 109.766,184.708 110.5,183.5 Z"/></g>
<g><path style="opacity:1" fill="#e77f00" d="M 93.5,185.5 C 96.6034,184.203 96.9367,184.536 94.5,186.5C 93.8933,186.376 93.56,186.043 93.5,185.5 Z"/></g>
<g><path style="opacity:1" fill="#e77f00" d="M 265.5,195.5 C 266.833,195.5 268.167,195.5 269.5,195.5C 268.716,203.327 267.383,203.327 265.5,195.5 Z"/></g>
<g><path style="opacity:1" fill="#e77f00" d="M 275.5,195.5 C 277.5,195.5 279.5,195.5 281.5,195.5C 281.5,198.167 281.5,200.833 281.5,203.5C 279.5,203.5 277.5,203.5 275.5,203.5C 275.5,200.833 275.5,198.167 275.5,195.5 Z"/></g>
<g><path style="opacity:1" fill="#e77f00" d="M 293.5,198.5 C 293.611,199.117 293.944,199.617 294.5,200C 292.391,201.141 290.558,202.641 289,204.5C 288.601,204.272 288.435,203.938 288.5,203.5C 288.5,200.833 288.5,198.167 288.5,195.5C 290.167,195.5 291.833,195.5 293.5,195.5C 293.5,196.5 293.5,197.5 293.5,198.5 Z"/></g>
<g><path style="opacity:1" fill="#fdbdb6" d="M 349.5,183.5 C 348.375,185.129 347.041,186.629 345.5,188C 346.849,188.772 347.682,189.939 348,191.5C 348.191,197.083 348.691,202.583 349.5,208C 356.717,208.808 362.883,206.641 368,201.5C 368.383,202.056 368.883,202.389 369.5,202.5C 374.376,201.263 379.209,199.93 384,198.5C 384.333,198.833 384.667,199.167 385,199.5C 393.065,195.982 401.065,193.316 409,191.5C 411.207,192.997 411.874,194.997 411,197.5C 408.738,201.266 405.904,204.433 402.5,207C 390.921,213.754 378.921,219.754 366.5,225C 352.333,229.79 338,233.79 323.5,237C 326.948,237.859 330.448,238.359 334,238.5C 343.6,237.042 353.1,236.042 362.5,235.5C 364.709,235.604 366.876,235.937 369,236.5C 371.141,238.488 373.641,239.821 376.5,240.5C 377.83,242.347 377.497,243.847 375.5,245C 363.833,248 352.167,251 340.5,254C 338.509,254.374 336.842,255.207 335.5,256.5C 312.707,261.569 290.707,268.902 269.5,278.5C 263.686,266.382 257.686,254.382 251.5,242.5C 258.327,231.996 266.66,222.663 276.5,214.5C 277.338,214.158 277.672,213.492 277.5,212.5C 280.983,209.261 284.65,206.261 288.5,203.5C 288.435,203.938 288.601,204.272 289,204.5C 290.558,202.641 292.391,201.141 294.5,200C 293.944,199.617 293.611,199.117 293.5,198.5C 298.503,194.178 303.836,190.178 309.5,186.5C 317.589,180.575 324.589,173.409 330.5,165C 332.167,164.167 333.833,163.333 335.5,162.5C 336.5,162.833 337.167,163.5 337.5,164.5C 335.732,168.109 333.732,171.609 331.5,175C 331.833,175.333 332.167,175.667 332.5,176C 331.347,177.883 329.681,178.716 327.5,178.5C 327.628,180.655 327.128,182.655 326,184.5C 325.667,184.167 325.333,183.833 325,183.5C 324.529,185.246 323.862,186.913 323,188.5C 320.833,190.833 318.667,193.167 316.5,195.5C 316.833,196.5 317.5,197.167 318.5,197.5C 322.074,194.794 325.907,192.46 330,190.5C 330.333,190.833 330.667,191.167 331,191.5C 335.714,188.779 340.547,186.279 345.5,184C 346.793,183.51 348.127,183.343 349.5,183.5 Z"/></g>
<g><path style="opacity:1" fill="#d04042" d="M 458.5,201.5 C 459.391,202.11 460.391,202.443 461.5,202.5C 461.611,203.117 461.944,203.617 462.5,204C 455.892,210.102 449.892,216.602 444.5,223.5C 443.386,222.277 443.219,220.944 444,219.5C 447.038,215.802 450.038,212.136 453,208.5C 454,206.5 455,204.5 456,202.5C 456.671,201.748 457.504,201.414 458.5,201.5 Z"/></g>
<g><path style="opacity:1" fill="#e77f00" d="M 277.5,212.5 C 277.672,213.492 277.338,214.158 276.5,214.5C 275.952,212.606 274.952,210.94 273.5,209.5C 277.063,206.53 278.397,207.53 277.5,212.5 Z"/></g>
<g><path style="opacity:1" fill="#e77f00" d="M 251.5,242.5 C 257.686,254.382 263.686,266.382 269.5,278.5C 272.066,284.942 274.566,291.275 277,297.5C 262.465,305.519 247.631,313.186 232.5,320.5C 220.47,297.104 208.47,273.771 196.5,250.5C 211.367,242.148 226.533,234.148 242,226.5C 244.941,232.062 248.108,237.395 251.5,242.5 Z"/></g>
<g><path style="opacity:1" fill="#f7fcfe" d="M 672.5,225.5 C 673.496,225.414 674.329,225.748 675,226.5C 676,229.5 677,232.5 678,235.5C 678.669,238.267 679.836,238.767 681.5,237C 680.599,234.129 679.599,231.296 678.5,228.5C 680.006,227.253 681.506,227.253 683,228.5C 683.574,231.319 684.907,233.652 687,235.5C 687.5,235.167 688,234.833 688.5,234.5C 687.41,233.391 687.41,232.391 688.5,231.5C 691.409,233.356 694.409,235.023 697.5,236.5C 695.726,239.715 694.226,243.048 693,246.5C 692.066,243.408 690.9,243.075 689.5,245.5C 690.685,248.39 690.685,251.224 689.5,254C 688.517,254.591 687.85,254.257 687.5,253C 686.391,250.953 685.724,248.787 685.5,246.5C 684.5,246.5 683.5,246.5 682.5,246.5C 683.035,250.437 684.368,254.104 686.5,257.5C 685.653,258.845 684.487,259.845 683,260.5C 681.643,256.254 679.81,252.254 677.5,248.5C 676.85,252.605 677.517,256.605 679.5,260.5C 678.167,261.833 676.833,261.833 675.5,260.5C 674.328,256.822 672.661,253.489 670.5,250.5C 669.337,245.198 669.171,239.864 670,234.5C 670.837,236.351 671.671,238.184 672.5,240C 673.6,240.432 674.267,239.932 674.5,238.5C 673.448,234.73 672.115,231.063 670.5,227.5C 671.243,226.818 671.909,226.151 672.5,225.5 Z"/></g>
<g><path style="opacity:1" fill="#e64a48" d="M 512.5,237.5 C 524.246,237.006 534.413,240.672 543,248.5C 544.366,250.37 545.533,252.37 546.5,254.5C 532.876,251.39 519.21,247.557 505.5,243C 505.043,242.586 504.709,242.086 504.5,241.5C 507.348,240.341 510.015,239.008 512.5,237.5 Z"/></g>
<g><path style="opacity:0.996" fill="#e5eefd" d="M 670.5,334.5 C 670.333,321.496 670.5,308.496 671,295.5C 673.33,293.518 675.664,291.518 678,289.5C 678.333,289.833 678.667,290.167 679,290.5C 679.483,289.552 679.649,288.552 679.5,287.5C 680.552,287.649 681.552,287.483 682.5,287C 684.909,284.459 687.576,283.126 690.5,283C 689.167,282.333 689.167,281.667 690.5,281C 697.262,279.237 701.762,275.07 704,268.5C 705.055,260.843 706.055,253.177 707,245.5C 708.478,237.186 713.311,232.52 721.5,231.5C 725.182,231.665 728.848,231.499 732.5,231C 736.035,226.287 740.035,221.953 744.5,218C 759.359,214.179 769.859,219.346 776,233.5C 779.43,241.542 781.097,249.875 781,258.5C 779.874,259.944 778.374,260.61 776.5,260.5C 773.921,260.14 771.421,259.474 769,258.5C 766.869,259.411 765.702,261.077 765.5,263.5C 766.5,266.833 767.5,270.167 768.5,273.5C 767.165,278.104 763.998,280.437 759,280.5C 752.542,278.563 746.042,278.229 739.5,279.5C 739.167,280.167 738.833,280.833 738.5,281.5C 742.079,291.491 742.246,301.491 739,311.5C 734.873,317.148 729.373,320.648 722.5,322C 710.45,323.368 698.45,325.034 686.5,327C 680.994,329.255 675.66,331.755 670.5,334.5 Z"/></g>
<g><path style="opacity:1" fill="#e54a4a" d="M 493.5,250.5 C 512.577,255.971 531.577,261.637 550.5,267.5C 549.841,270.455 549.508,273.455 549.5,276.5C 529.72,271.186 510.053,265.352 490.5,259C 490.124,255.872 491.124,253.038 493.5,250.5 Z"/></g>
<g><path style="opacity:1" fill="#e34c49" d="M 488.5,269.5 C 507.391,274.953 526.057,280.953 544.5,287.5C 542.815,290.589 540.481,292.923 537.5,294.5C 520.758,289.857 504.258,284.524 488,278.5C 487.264,275.408 487.431,272.408 488.5,269.5 Z"/></g>
<g><path style="opacity:1" fill="#e77f08" d="M 154.5,339.5 C 157.739,339.413 160.739,340.08 163.5,341.5C 163.067,336.167 162.567,330.834 162,325.5C 159.619,324.565 157.119,324.232 154.5,324.5C 149.686,324.107 146.352,321.774 144.5,317.5C 146.335,313.232 149.668,310.899 154.5,310.5C 157.321,310.461 159.988,309.795 162.5,308.5C 163.097,305.029 163.764,301.695 164.5,298.5C 164.5,302.167 164.5,305.833 164.5,309.5C 169.261,309.794 173.928,310.627 178.5,312C 184.681,314.847 185.014,318.181 179.5,322C 174.675,323.895 169.675,324.728 164.5,324.5C 164.334,329.844 164.501,335.177 165,340.5C 169.103,341.789 173.27,342.956 177.5,344C 181.114,346.141 181.114,348.475 177.5,351C 173.586,352.283 169.586,353.116 165.5,353.5C 165.616,356.86 165.949,360.193 166.5,363.5C 170.188,363.781 173.855,364.281 177.5,365C 181.547,369.173 181.214,373.173 176.5,377C 181.044,377.022 182.544,379.188 181,383.5C 177.919,386.293 174.419,388.46 170.5,390C 172.78,391.936 175.447,392.769 178.5,392.5C 186.754,390.516 195.087,389.349 203.5,389C 204.833,389.667 206.167,390.333 207.5,391C 209.733,393.996 212.066,396.829 214.5,399.5C 215.508,406.472 215.675,413.472 215,420.5C 211.895,430.993 207.728,440.993 202.5,450.5C 195.712,462.656 193.212,475.656 195,489.5C 195.642,491.762 196.475,493.929 197.5,496C 197,496.5 196.5,497 196,497.5C 194.569,495.636 193.403,493.636 192.5,491.5C 188.124,476.237 180.79,462.737 170.5,451C 169.551,450.383 168.718,450.549 168,451.5C 163.917,444.751 158.417,439.251 151.5,435C 150.451,434.508 149.451,434.674 148.5,435.5C 148.264,434.753 147.93,433.92 147.5,433C 138.717,428.179 129.55,424.679 120,422.5C 114.6,421.422 109.933,418.422 106,413.5C 102.717,404.978 99.05,396.644 95,388.5C 92.8513,387.348 91.018,385.848 89.5,384C 85.9748,383.821 82.6414,383.321 79.5,382.5C 82.8067,379.273 83.64,375.606 82,371.5C 76.1498,369.66 70.4831,367.326 65,364.5C 64.3333,362.167 64.3333,359.833 65,357.5C 68.7899,354.547 71.6233,350.88 73.5,346.5C 71.73,342.603 68.73,340.103 64.5,339C 58.7803,334.116 56.9469,327.95 59,320.5C 64.4193,304.124 75.7527,295.79 93,295.5C 113.836,297.327 126.169,308.661 130,329.5C 134.801,340.982 142.967,344.315 154.5,339.5 Z"/></g>
<g><path style="opacity:1" fill="#dd4e51" d="M 502.5,296.5 C 502.917,295.876 503.584,295.543 504.5,295.5C 509.548,297.012 514.548,298.679 519.5,300.5C 516.894,301.652 514.227,301.818 511.5,301C 508.473,299.487 505.473,297.987 502.5,296.5 Z"/></g>
<g><path style="opacity:1" fill="#e8eef5" d="M 154.5,324.5 C 157.119,324.232 159.619,324.565 162,325.5C 162.567,330.834 163.067,336.167 163.5,341.5C 160.739,340.08 157.739,339.413 154.5,339.5C 154.5,334.5 154.5,329.5 154.5,324.5 Z"/></g>
<g><path style="opacity:0.968" fill="#dce9f9" d="M 670.5,334.5 C 670.333,353.503 670.5,372.503 671,391.5C 674.328,388.667 677.995,386.334 682,384.5C 680.121,373.591 681.788,363.258 687,353.5C 688.971,359.717 690.471,366.051 691.5,372.5C 692.833,372.5 694.167,372.5 695.5,372.5C 694.382,364.199 692.715,356.032 690.5,348C 692.764,345.067 695.598,342.9 699,341.5C 701.796,350.684 703.963,360.017 705.5,369.5C 707.665,369.884 709.332,369.217 710.5,367.5C 707.866,358.296 705.866,348.963 704.5,339.5C 707.833,339.5 711.167,339.5 714.5,339.5C 715.953,348.478 717.953,357.311 720.5,366C 722.353,366.551 723.687,365.885 724.5,364C 722.119,356.649 720.619,349.149 720,341.5C 724.181,343.013 727.848,345.346 731,348.5C 732,352.833 733,357.167 734,361.5C 735.614,363.95 737.114,363.783 738.5,361C 737.469,357.857 736.969,354.691 737,351.5C 744.225,357.057 751.725,362.224 759.5,367C 754.043,374.075 749.21,381.575 745,389.5C 744.411,386.103 743.078,383.103 741,380.5C 740.333,381.167 739.667,381.833 739,382.5C 739.242,386.542 740.076,390.542 741.5,394.5C 739.586,398.578 737.086,402.245 734,405.5C 731.879,399.353 730.212,393.019 729,386.5C 728.047,384.408 726.714,384.075 725,385.5C 725.845,393.392 727.345,401.226 729.5,409C 727.399,412.661 724.399,414.161 720.5,413.5C 718.548,404.856 716.215,396.356 713.5,388C 712.551,387.383 711.718,387.549 711,388.5C 712.038,397.531 713.538,406.531 715.5,415.5C 711.936,415.849 708.602,415.183 705.5,413.5C 703.728,405.912 701.728,398.412 699.5,391C 697.799,390.655 696.466,391.322 695.5,393C 696.731,397.091 697.731,401.257 698.5,405.5C 697.542,405.047 696.708,404.381 696,403.5C 695.517,404.448 695.351,405.448 695.5,406.5C 693.833,405.5 692.5,404.167 691.5,402.5C 693.048,402.179 693.715,401.179 693.5,399.5C 691.821,399.285 690.821,399.952 690.5,401.5C 687.414,397.666 685.08,393.333 683.5,388.5C 679.646,390.258 675.979,392.258 672.5,394.5C 671.828,393.733 670.995,393.066 670,392.5C 669.171,372.996 669.338,353.662 670.5,334.5 Z"/></g>
<g><path style="opacity:1" fill="#e3f2fc" d="M 161.5,353.5 C 162.75,353.577 163.583,354.244 164,355.5C 164.497,358.146 164.664,360.813 164.5,363.5C 162.801,363.66 161.134,363.494 159.5,363C 158.167,362 158.167,361 159.5,360C 158.833,359.667 158.167,359.333 157.5,359C 158.488,356.833 159.821,355 161.5,353.5 Z"/></g>
<g><path style="opacity:0.997" fill="#e5eefd" d="M 79.5,382.5 C 82.6414,383.321 85.9748,383.821 89.5,384C 91.018,385.848 92.8513,387.348 95,388.5C 99.05,396.644 102.717,404.978 106,413.5C 109.933,418.422 114.6,421.422 120,422.5C 129.55,424.679 138.717,428.179 147.5,433C 147.93,433.92 148.264,434.753 148.5,435.5C 149.451,434.674 150.451,434.508 151.5,435C 158.417,439.251 163.917,444.751 168,451.5C 168.718,450.549 169.551,450.383 170.5,451C 180.79,462.737 188.124,476.237 192.5,491.5C 185.357,485.427 177.69,480.094 169.5,475.5C 169.824,471.445 169.491,467.445 168.5,463.5C 166.747,466.005 165.247,468.671 164,471.5C 163.695,468.503 163.862,465.503 164.5,462.5C 164.564,460.611 164.064,458.944 163,457.5C 161.178,461.144 159.344,464.811 157.5,468.5C 157.167,467.833 156.833,467.167 156.5,466.5C 158.323,462.698 159.323,458.698 159.5,454.5C 158.167,454.5 156.833,454.5 155.5,454.5C 155.396,457.919 154.229,460.919 152,463.5C 151.289,461.101 151.456,458.768 152.5,456.5C 150.994,455.253 149.494,455.253 148,456.5C 147.361,459.112 146.194,461.446 144.5,463.5C 143.833,462.167 143.167,460.833 142.5,459.5C 138.52,461.508 134.853,463.841 131.5,466.5C 121.949,468.579 112.283,469.912 102.5,470.5C 91.1581,471.584 83.3247,466.917 79,456.5C 77.2211,449.273 76.0545,441.94 75.5,434.5C 73.5675,433.48 71.5675,433.313 69.5,434C 65.2864,436.274 60.9531,438.274 56.5,440C 52.4948,441.098 48.9948,440.265 46,437.5C 45.6667,433.167 45.3333,428.833 45,424.5C 44.3005,422.968 43.1338,421.968 41.5,421.5C 30.653,429.386 25.653,426.386 26.5,412.5C 26.2263,402.559 28.3929,393.226 33,384.5C 40.0599,376.277 48.5599,374.11 58.5,378C 64.1721,385.967 71.1721,387.467 79.5,382.5 Z"/></g>
<g><path style="opacity:0.99" fill="#e9e9e9" d="M 214.5,399.5 C 265.5,399.5 316.5,399.5 367.5,399.5C 335.661,400.498 303.661,401.498 271.5,402.5C 287.486,403.499 303.486,403.833 319.5,403.5C 319.5,418.167 319.5,432.833 319.5,447.5C 324.167,447.5 328.833,447.5 333.5,447.5C 333.5,448.5 333.5,449.5 333.5,450.5C 289.833,450.5 246.167,450.5 202.5,450.5C 207.728,440.993 211.895,430.993 215,420.5C 215.675,413.472 215.508,406.472 214.5,399.5 Z"/></g>
<g><path style="opacity:0.999" fill="#e3e2e2" d="M 670.5,396.5 C 670.336,399.187 670.503,401.854 671,404.5C 673.633,402.84 676.466,402.34 679.5,403C 677.405,403.556 677.238,404.056 679,404.5C 680.763,404.025 682.43,403.358 684,402.5C 685.171,403.893 686.671,404.727 688.5,405C 688.167,405.333 687.833,405.667 687.5,406C 688.784,406.684 689.951,406.517 691,405.5C 693.736,407.029 693.902,408.529 691.5,410C 693.085,410.085 694.418,410.251 695.5,410.5C 693.238,412.508 693.738,412.841 697,411.5C 697.456,412.744 696.956,413.577 695.5,414C 698.185,414.845 699.851,416.678 700.5,419.5C 699.975,420.192 699.308,420.692 698.5,421C 700.658,422.312 700.991,423.978 699.5,426C 703.795,426.912 708.128,427.579 712.5,428C 707.649,428.174 702.982,428.674 698.5,429.5C 696.611,428.62 694.611,428.62 692.5,429.5C 692.167,428.167 691.833,428.167 691.5,429.5C 689.678,429.831 688.011,430.498 686.5,431.5C 685.5,430.167 684.5,430.167 683.5,431.5C 682.475,431.897 682.308,432.563 683,433.5C 684.011,432.663 685.178,432.33 686.5,432.5C 686.5,433.167 686.833,433.5 687.5,433.5C 686.391,434.29 685.058,434.79 683.5,435C 684.094,435.464 684.761,435.631 685.5,435.5C 685.5,435.833 685.5,436.167 685.5,436.5C 683.15,437.11 683.483,437.444 686.5,437.5C 686.842,438.338 687.508,438.672 688.5,438.5C 687.391,439.29 686.058,439.79 684.5,440C 685.094,440.464 685.761,440.631 686.5,440.5C 686.5,440.833 686.5,441.167 686.5,441.5C 683.664,441.202 683.164,441.869 685,443.5C 687.98,442.809 690.814,441.809 693.5,440.5C 693.5,440.833 693.5,441.167 693.5,441.5C 693.082,442.222 692.416,442.722 691.5,443C 691.728,443.399 692.062,443.565 692.5,443.5C 692.5,443.833 692.5,444.167 692.5,444.5C 689.873,443.604 687.206,443.77 684.5,445C 685.094,445.464 685.761,445.631 686.5,445.5C 687.167,446.833 687.833,446.833 688.5,445.5C 690.167,445.5 691.833,445.5 693.5,445.5C 694.919,446.451 696.585,446.784 698.5,446.5C 702.634,447.485 706.968,447.818 711.5,447.5C 711.158,448.338 710.492,448.672 709.5,448.5C 703.491,448.334 697.491,448.501 691.5,449C 694.146,449.497 696.813,449.664 699.5,449.5C 699.158,450.338 698.492,450.672 697.5,450.5C 694.167,450.5 690.833,450.5 687.5,450.5C 686.5,450.5 685.5,450.5 684.5,450.5C 683.292,451.234 681.959,451.567 680.5,451.5C 680.167,450.167 679.833,450.167 679.5,451.5C 677.972,451.517 677.472,452.184 678,453.5C 678.671,452.748 679.504,452.414 680.5,452.5C 680.5,453.167 680.833,453.5 681.5,453.5C 680.737,454.268 679.737,454.768 678.5,455C 679.094,455.464 679.761,455.631 680.5,455.5C 680.5,455.833 680.5,456.167 680.5,456.5C 678.389,455.62 676.389,455.62 674.5,456.5C 673.5,455.167 672.5,455.167 671.5,456.5C 670.933,457.42 671.599,457.754 673.5,457.5C 673.5,457.833 673.5,458.167 673.5,458.5C 671.833,458.5 670.167,458.5 668.5,458.5C 666.362,458.062 664.028,457.895 661.5,458C 662.696,457.346 662.696,456.846 661.5,456.5C 660.707,456.931 659.873,457.265 659,457.5C 657.629,456.419 656.129,455.585 654.5,455C 654.833,454.667 655.167,454.333 655.5,454C 654.167,453 652.833,452 651.5,451C 591.501,450.5 531.501,450.333 471.5,450.5C 432.167,449.167 392.833,449.167 353.5,450.5C 346.833,450.5 340.167,450.5 333.5,450.5C 333.5,449.5 333.5,448.5 333.5,447.5C 328.833,447.5 324.167,447.5 319.5,447.5C 319.5,432.833 319.5,418.167 319.5,403.5C 303.486,403.833 287.486,403.499 271.5,402.5C 303.661,401.498 335.661,400.498 367.5,399.5C 426.167,399.5 484.833,399.5 543.5,399.5C 519.663,400.249 495.663,400.916 471.5,401.5C 468.833,401.833 466.167,402.167 463.5,402.5C 468.792,403.495 474.125,403.828 479.5,403.5C 479.5,407.5 479.5,411.5 479.5,415.5C 484.833,415.5 490.167,415.5 495.5,415.5C 495.5,426.167 495.5,436.833 495.5,447.5C 490.125,447.172 484.792,447.505 479.5,448.5C 537.901,449.171 596.234,449.837 654.5,450.5C 655.167,451.833 655.833,451.833 656.5,450.5C 658.389,449.258 660.389,449.258 662.5,450.5C 664.048,451.734 664.715,451.734 664.5,450.5C 666.374,449.715 668.374,449.048 670.5,448.5C 669.375,447.348 669.375,446.348 670.5,445.5C 669.167,444.167 669.167,442.833 670.5,441.5C 671.833,441.167 671.833,440.833 670.5,440.5C 669.375,439.348 669.375,438.348 670.5,437.5C 673.143,438.507 673.477,438.507 671.5,437.5C 669.568,436.024 669.235,434.357 670.5,432.5C 669.375,431.348 669.375,430.348 670.5,429.5C 670.5,429.167 670.5,428.833 670.5,428.5C 671.833,428.167 671.833,427.833 670.5,427.5C 669.375,426.348 669.375,425.348 670.5,424.5C 669.375,423.348 669.375,422.348 670.5,421.5C 670.5,421.167 670.5,420.833 670.5,420.5C 671.833,420.167 671.833,419.833 670.5,419.5C 669.375,418.348 669.375,417.348 670.5,416.5C 669.28,414.716 669.28,413.05 670.5,411.5C 669.375,410.348 669.375,409.348 670.5,408.5C 671.849,409.644 672.183,409.644 671.5,408.5C 670.325,406.616 669.658,404.449 669.5,402C 669.506,399.967 669.839,398.134 670.5,396.5 Z"/></g>
<g><path style="opacity:1" fill="#ea892b" d="M 691.5,402.5 C 690.833,402.5 690.5,402.167 690.5,401.5C 690.821,399.952 691.821,399.285 693.5,399.5C 693.715,401.179 693.048,402.179 691.5,402.5 Z"/></g>
<g><path style="opacity:1" fill="#ea8b2e" d="M 698.5,405.5 C 698.5,405.833 698.5,406.167 698.5,406.5C 697.833,406.833 697.167,407.167 696.5,407.5C 695.833,407.5 695.5,407.167 695.5,406.5C 695.351,405.448 695.517,404.448 696,403.5C 696.708,404.381 697.542,405.047 698.5,405.5 Z"/></g>
<g><path style="opacity:0.633" fill="#dbe8fb" d="M 698.5,406.5 C 699.909,411.286 699.242,411.62 696.5,407.5C 697.167,407.167 697.833,406.833 698.5,406.5 Z"/></g>
<g><path style="opacity:1" fill="#e77f00" d="M 437.5,415.5 C 439.337,415.639 439.67,416.306 438.5,417.5C 437.702,417.043 437.369,416.376 437.5,415.5 Z"/></g>
<g><path style="opacity:1" fill="#e87f03" d="M 428.5,416.5 C 433.282,417.941 437.282,420.608 440.5,424.5C 440.154,425.696 439.654,425.696 439,424.5C 436.561,433.143 432.061,434.809 425.5,429.5C 424.684,427.713 423.684,426.046 422.5,424.5C 424.162,423.673 425.495,422.507 426.5,421C 425.262,421.077 424.262,420.911 423.5,420.5C 425.826,419.855 427.493,418.522 428.5,416.5 Z"/></g>
<g><path style="opacity:1" fill="#e77f00" d="M 392.5,418.5 C 394.527,418.338 396.527,418.505 398.5,419C 399.056,421.237 400.056,423.237 401.5,425C 396.98,433.347 392.313,433.514 387.5,425.5C 388.804,422.87 390.47,420.537 392.5,418.5 Z"/></g>
<g><path style="opacity:1" fill="#e77f00" d="M 687.5,425.5 C 687.833,425.5 688.167,425.5 688.5,425.5C 690.631,426.314 692.964,426.814 695.5,427C 693.567,427.251 691.734,427.751 690,428.5C 688.052,427.891 686.218,427.224 684.5,426.5C 685.791,426.737 686.791,426.404 687.5,425.5 Z"/></g>
<g><path style="opacity:1" fill="#e9841a" d="M 698.5,429.5 C 700.5,429.5 702.5,429.5 704.5,429.5C 704.158,430.338 703.492,430.672 702.5,430.5C 701.833,430.5 701.167,430.5 700.5,430.5C 698.611,431.38 696.611,431.38 694.5,430.5C 691.833,430.833 691.833,431.167 694.5,431.5C 695.239,431.369 695.906,431.536 696.5,432C 694.942,432.21 693.609,432.71 692.5,433.5C 692.167,433.5 691.833,433.5 691.5,433.5C 690.609,432.89 689.609,432.557 688.5,432.5C 687.833,432.5 687.167,432.5 686.5,432.5C 685.178,432.33 684.011,432.663 683,433.5C 682.308,432.563 682.475,431.897 683.5,431.5C 684.5,431.5 685.5,431.5 686.5,431.5C 688.011,430.498 689.678,429.831 691.5,429.5C 691.833,429.5 692.167,429.5 692.5,429.5C 694.611,428.62 696.611,428.62 698.5,429.5 Z"/></g>
<g><path style="opacity:0.292" fill="#becbe9" d="M 704.5,429.5 C 709.032,429.069 713.365,429.569 717.5,431C 713.312,431.176 709.312,431.676 705.5,432.5C 704.833,432.5 704.5,432.833 704.5,433.5C 702.585,433.216 700.919,433.549 699.5,434.5C 697.389,433.62 695.389,433.62 693.5,434.5C 693.5,433.833 693.167,433.5 692.5,433.5C 693.609,432.71 694.942,432.21 696.5,432C 695.906,431.536 695.239,431.369 694.5,431.5C 694.5,431.167 694.5,430.833 694.5,430.5C 696.611,431.38 698.611,431.38 700.5,430.5C 701.167,431.833 701.833,431.833 702.5,430.5C 703.492,430.672 704.158,430.338 704.5,429.5 Z"/></g>
<g><path style="opacity:0.357" fill="#d6e2ff" d="M 688.5,433.5 C 688.5,433.167 688.5,432.833 688.5,432.5C 689.609,432.557 690.609,432.89 691.5,433.5C 691.5,433.833 691.5,434.167 691.5,434.5C 690.391,434.443 689.391,434.11 688.5,433.5 Z"/></g>
<g><path style="opacity:0.251" fill="#daa88c" d="M 704.5,433.5 C 704.5,432.833 704.833,432.5 705.5,432.5C 710.691,432.058 715.691,432.558 720.5,434C 715.253,433.605 709.92,433.438 704.5,433.5 Z"/></g>
<g><path style="opacity:1" fill="#e77f00" d="M 687.5,433.5 C 687.833,433.5 688.167,433.5 688.5,433.5C 689.391,434.11 690.391,434.443 691.5,434.5C 692.167,434.5 692.833,434.5 693.5,434.5C 695.389,433.62 697.389,433.62 699.5,434.5C 700.833,434.5 702.167,434.5 703.5,434.5C 702.791,435.404 701.791,435.737 700.5,435.5C 700.167,435.5 699.833,435.5 699.5,435.5C 698.167,435.5 696.833,435.5 695.5,435.5C 694.833,435.5 694.167,435.5 693.5,435.5C 691.167,435.5 688.833,435.5 686.5,435.5C 686.167,435.5 685.833,435.5 685.5,435.5C 684.761,435.631 684.094,435.464 683.5,435C 685.058,434.79 686.391,434.29 687.5,433.5 Z"/></g>
<g><path style="opacity:0.363" fill="#d2b6b0" d="M 703.5,434.5 C 709.888,434.312 716.222,434.812 722.5,436C 716.833,436.333 711.167,436.667 705.5,437C 709.486,437.499 713.486,437.666 717.5,437.5C 717.5,437.833 717.5,438.167 717.5,438.5C 710.978,438.177 704.645,438.51 698.5,439.5C 697.298,438.595 695.964,438.595 694.5,439.5C 694.5,438.833 694.167,438.5 693.5,438.5C 693.5,438.167 693.5,437.833 693.5,437.5C 693.5,437.167 693.5,436.833 693.5,436.5C 694.492,436.672 695.158,436.338 695.5,435.5C 696.833,435.5 698.167,435.5 699.5,435.5C 699.833,436.833 700.167,436.833 700.5,435.5C 701.791,435.737 702.791,435.404 703.5,434.5 Z"/></g>
<g><path style="opacity:0.814" fill="#d8e5fa" d="M 686.5,436.5 C 686.5,436.167 686.5,435.833 686.5,435.5C 688.833,435.5 691.167,435.5 693.5,435.5C 693.5,435.833 693.5,436.167 693.5,436.5C 693.5,436.833 693.5,437.167 693.5,437.5C 691.283,436.631 688.95,436.298 686.5,436.5 Z"/></g>
<g><path style="opacity:1" fill="#e77f00" d="M 685.5,436.5 C 685.833,436.5 686.167,436.5 686.5,436.5C 688.95,436.298 691.283,436.631 693.5,437.5C 693.5,437.833 693.5,438.167 693.5,438.5C 693.167,438.5 692.833,438.5 692.5,438.5C 691.609,437.89 690.609,437.557 689.5,437.5C 688.5,437.5 687.5,437.5 686.5,437.5C 683.483,437.444 683.15,437.11 685.5,436.5 Z"/></g>
<g><path style="opacity:1" fill="#e9841e" d="M 688.5,438.5 C 688.833,438.5 689.167,438.5 689.5,438.5C 690.391,439.11 691.391,439.443 692.5,439.5C 693.167,439.5 693.833,439.5 694.5,439.5C 695.964,438.595 697.298,438.595 698.5,439.5C 700.167,439.5 701.833,439.5 703.5,439.5C 703.158,440.338 702.492,440.672 701.5,440.5C 698.833,440.5 696.167,440.5 693.5,440.5C 690.814,441.809 687.98,442.809 685,443.5C 683.164,441.869 683.664,441.202 686.5,441.5C 689.167,441.167 689.167,440.833 686.5,440.5C 685.761,440.631 685.094,440.464 684.5,440C 686.058,439.79 687.391,439.29 688.5,438.5 Z"/></g>
<g><path style="opacity:0.125" fill="#d2e2f3" d="M 689.5,438.5 C 689.5,438.167 689.5,437.833 689.5,437.5C 690.609,437.557 691.609,437.89 692.5,438.5C 692.5,438.833 692.5,439.167 692.5,439.5C 691.391,439.443 690.391,439.11 689.5,438.5 Z"/></g>
<g><path style="opacity:0.379" fill="#cfb5b3" d="M 717.5,437.5 C 724.569,437.743 724.903,438.577 718.5,440C 720.5,440.333 722.5,440.667 724.5,441C 717.167,441.333 709.833,441.667 702.5,442C 706.821,442.499 711.154,442.666 715.5,442.5C 714.791,443.404 713.791,443.737 712.5,443.5C 706.5,443.5 700.5,443.5 694.5,443.5C 694.833,442.833 695.167,442.167 695.5,441.5C 697.735,441.795 699.735,441.461 701.5,440.5C 702.492,440.672 703.158,440.338 703.5,439.5C 708.363,439.819 713.03,439.486 717.5,438.5C 717.5,438.167 717.5,437.833 717.5,437.5 Z"/></g>
<g><path style="opacity:1" fill="#e77f00" d="M 693.5,441.5 C 694.167,441.5 694.833,441.5 695.5,441.5C 695.167,442.167 694.833,442.833 694.5,443.5C 693.833,443.5 693.167,443.5 692.5,443.5C 692.062,443.565 691.728,443.399 691.5,443C 692.416,442.722 693.082,442.222 693.5,441.5 Z"/></g>
<g><path style="opacity:0.369" fill="#c6bcca" d="M 715.5,442.5 C 727.482,443.007 727.482,443.84 715.5,445C 718.833,445.333 722.167,445.667 725.5,446C 716.506,446.5 707.506,446.666 698.5,446.5C 698.5,446.167 698.5,445.833 698.5,445.5C 700.099,445.768 701.432,445.434 702.5,444.5C 706.042,444.813 709.375,444.479 712.5,443.5C 713.791,443.737 714.791,443.404 715.5,442.5 Z"/></g>
<g><path style="opacity:1" fill="#e77f00" d="M 692.5,444.5 C 695.833,444.5 699.167,444.5 702.5,444.5C 701.432,445.434 700.099,445.768 698.5,445.5C 696.833,445.5 695.167,445.5 693.5,445.5C 691.833,445.5 690.167,445.5 688.5,445.5C 687.833,445.5 687.167,445.5 686.5,445.5C 685.761,445.631 685.094,445.464 684.5,445C 687.206,443.77 689.873,443.604 692.5,444.5 Z"/></g>
<g><path style="opacity:0.375" fill="#d3b3ae" d="M 711.5,447.5 C 716.214,447.173 720.88,447.507 725.5,448.5C 709.541,449.661 709.541,450.495 725.5,451C 716.5,451.333 707.5,451.667 698.5,452C 703.155,452.499 707.821,452.666 712.5,452.5C 712.158,453.338 711.492,453.672 710.5,453.5C 703.825,453.334 697.158,453.5 690.5,454C 694.821,454.499 699.154,454.666 703.5,454.5C 702.791,455.404 701.791,455.737 700.5,455.5C 694.5,455.5 688.5,455.5 682.5,455.5C 682.918,454.778 683.584,454.278 684.5,454C 684.272,453.601 683.938,453.435 683.5,453.5C 683.5,453.167 683.5,452.833 683.5,452.5C 684.338,452.158 684.672,451.492 684.5,450.5C 685.5,450.5 686.5,450.5 687.5,450.5C 690.833,451.833 694.167,451.833 697.5,450.5C 698.492,450.672 699.158,450.338 699.5,449.5C 703.042,449.813 706.375,449.479 709.5,448.5C 710.492,448.672 711.158,448.338 711.5,447.5 Z"/></g>
<g><path style="opacity:1" fill="#e87f05" d="M 471.5,450.5 C 471.5,464.167 471.5,477.833 471.5,491.5C 495.328,492.498 519.328,492.831 543.5,492.5C 543.5,495.833 543.5,499.167 543.5,502.5C 456.167,502.5 368.833,502.5 281.5,502.5C 281.5,499.167 281.5,495.833 281.5,492.5C 305.672,492.831 329.672,492.498 353.5,491.5C 353.5,477.833 353.5,464.167 353.5,450.5C 392.833,449.167 432.167,449.167 471.5,450.5 Z"/></g>
<g><path style="opacity:1" fill="#e77f00" d="M 684.5,450.5 C 684.672,451.492 684.338,452.158 683.5,452.5C 682.5,452.5 681.5,452.5 680.5,452.5C 679.504,452.414 678.671,452.748 678,453.5C 677.472,452.184 677.972,451.517 679.5,451.5C 679.833,451.5 680.167,451.5 680.5,451.5C 681.959,451.567 683.292,451.234 684.5,450.5 Z"/></g>
<g><path style="opacity:0.389" fill="#c1c0d3" d="M 712.5,452.5 C 716.555,452.176 720.555,452.509 724.5,453.5C 715.236,454.652 715.236,455.485 724.5,456C 716.323,456.823 708.323,456.656 700.5,455.5C 701.791,455.737 702.791,455.404 703.5,454.5C 706.059,454.802 708.393,454.468 710.5,453.5C 711.492,453.672 712.158,453.338 712.5,452.5 Z"/></g>
<g><path style="opacity:1" fill="#e77f00" d="M 681.5,453.5 C 682.167,453.5 682.833,453.5 683.5,453.5C 683.938,453.435 684.272,453.601 684.5,454C 683.584,454.278 682.918,454.778 682.5,455.5C 681.833,455.5 681.167,455.5 680.5,455.5C 679.761,455.631 679.094,455.464 678.5,455C 679.737,454.768 680.737,454.268 681.5,453.5 Z"/></g>
<g><path style="opacity:0.893" fill="#fbfdfe" d="M 169.5,475.5 C 168.475,475.897 168.308,476.563 169,477.5C 174.254,480.184 177.087,484.184 177.5,489.5C 175.018,485.551 171.851,482.217 168,479.5C 166.064,483.39 163.231,486.39 159.5,488.5C 158.966,485.893 159.633,483.393 161.5,481C 161,480.5 160.5,480 160,479.5C 158.667,482.833 157.333,486.167 156,489.5C 154.301,490.406 152.467,490.739 150.5,490.5C 151.624,486.461 152.957,482.461 154.5,478.5C 153.641,477.226 152.974,477.392 152.5,479C 151.162,482.35 149.829,485.684 148.5,489C 146.58,489.215 144.914,488.548 143.5,487C 145.299,483.275 146.466,479.442 147,475.5C 145.261,477.71 144.094,480.21 143.5,483C 143.15,484.257 142.483,484.591 141.5,484C 138.833,480.667 138.833,477.333 141.5,474C 141,473.5 140.5,473 140,472.5C 139.333,473.833 138.667,475.167 138,476.5C 136.48,473.618 135.147,470.618 134,467.5C 133.329,466.748 132.496,466.414 131.5,466.5C 134.853,463.841 138.52,461.508 142.5,459.5C 143.167,460.833 143.833,462.167 144.5,463.5C 146.194,461.446 147.361,459.112 148,456.5C 149.494,455.253 150.994,455.253 152.5,456.5C 151.456,458.768 151.289,461.101 152,463.5C 154.229,460.919 155.396,457.919 155.5,454.5C 156.833,454.5 158.167,454.5 159.5,454.5C 159.323,458.698 158.323,462.698 156.5,466.5C 156.833,467.167 157.167,467.833 157.5,468.5C 159.344,464.811 161.178,461.144 163,457.5C 164.064,458.944 164.564,460.611 164.5,462.5C 163.862,465.503 163.695,468.503 164,471.5C 165.247,468.671 166.747,466.005 168.5,463.5C 169.491,467.445 169.824,471.445 169.5,475.5 Z"/></g>
<g><path style="opacity:1" fill="#e77f00" d="M 680.5,456.5 C 681.833,456.5 683.167,456.5 684.5,456.5C 683.791,457.404 682.791,457.737 681.5,457.5C 678.833,457.5 676.167,457.5 673.5,457.5C 671.599,457.754 670.933,457.42 671.5,456.5C 672.5,456.5 673.5,456.5 674.5,456.5C 676.389,455.62 678.389,455.62 680.5,456.5 Z"/></g>
<g><path style="opacity:0.289" fill="#d9aa95" d="M 684.5,456.5 C 693.502,456.786 702.502,457.119 711.5,457.5C 710.432,458.434 709.099,458.768 707.5,458.5C 699.493,458.334 691.493,458.5 683.5,459C 688.155,459.499 692.821,459.666 697.5,459.5C 696.791,460.404 695.791,460.737 694.5,460.5C 688.158,460.334 681.825,460.5 675.5,461C 679.486,461.499 683.486,461.666 687.5,461.5C 686.081,462.451 684.415,462.784 682.5,462.5C 678.167,462.5 673.833,462.5 669.5,462.5C 669.567,461.041 669.234,459.708 668.5,458.5C 670.167,458.5 671.833,458.5 673.5,458.5C 676.385,458.806 679.052,458.473 681.5,457.5C 682.791,457.737 683.791,457.404 684.5,456.5 Z"/></g>
<g><path style="opacity:0.383" fill="#ccb8bb" d="M 711.5,457.5 C 727.486,458.004 727.486,458.837 711.5,460C 715.167,460.333 718.833,460.667 722.5,461C 715.167,461.333 707.833,461.667 700.5,462C 704.821,462.499 709.154,462.666 713.5,462.5C 712.432,463.434 711.099,463.768 709.5,463.5C 700.5,463.5 691.5,463.5 682.5,463.5C 682.5,463.167 682.5,462.833 682.5,462.5C 684.415,462.784 686.081,462.451 687.5,461.5C 690.059,461.802 692.393,461.468 694.5,460.5C 695.791,460.737 696.791,460.404 697.5,459.5C 701.042,459.813 704.375,459.479 707.5,458.5C 709.099,458.768 710.432,458.434 711.5,457.5 Z"/></g>
<g><path style="opacity:0.5" fill="#dba891" d="M 682.5,463.5 C 686.97,464.486 691.637,464.819 696.5,464.5C 695.791,465.404 694.791,465.737 693.5,465.5C 686.159,465.334 678.826,465.5 671.5,466C 676.155,466.499 680.821,466.666 685.5,466.5C 684.791,467.404 683.791,467.737 682.5,467.5C 678.167,467.5 673.833,467.5 669.5,467.5C 669.5,466.167 669.5,464.833 669.5,463.5C 673.833,463.5 678.167,463.5 682.5,463.5 Z"/></g>
<g><path style="opacity:0.37" fill="#d4b0a7" d="M 713.5,462.5 C 715.924,462.192 718.257,462.526 720.5,463.5C 717.215,464.324 713.882,464.824 710.5,465C 713.167,465.333 715.833,465.667 718.5,466C 712.167,466.333 705.833,466.667 699.5,467C 704.155,467.499 708.821,467.666 713.5,467.5C 712.432,468.434 711.099,468.768 709.5,468.5C 701.826,468.334 694.159,468.5 686.5,469C 690.821,469.499 695.154,469.666 699.5,469.5C 699.158,470.338 698.492,470.672 697.5,470.5C 689.493,470.334 681.493,470.5 673.5,471C 677.821,471.499 682.154,471.666 686.5,471.5C 685.432,472.434 684.099,472.768 682.5,472.5C 677.999,473.137 673.999,472.137 670.5,469.5C 674.647,468.833 678.647,468.166 682.5,467.5C 683.791,467.737 684.791,467.404 685.5,466.5C 688.385,466.806 691.052,466.473 693.5,465.5C 694.791,465.737 695.791,465.404 696.5,464.5C 701.032,464.818 705.366,464.485 709.5,463.5C 711.099,463.768 712.432,463.434 713.5,462.5 Z"/></g>
<g><path style="opacity:0.354" fill="#ceb7b9" d="M 713.5,467.5 C 717.456,468.053 717.456,468.886 713.5,470C 713.833,470.333 714.167,470.667 714.5,471C 709.5,471.333 704.5,471.667 699.5,472C 703.5,472.333 707.5,472.667 711.5,473C 704.167,473.333 696.833,473.667 689.5,474C 693.821,474.499 698.154,474.666 702.5,474.5C 701.081,475.451 699.415,475.784 697.5,475.5C 690.492,475.666 683.492,475.5 676.5,475C 676.167,474.667 675.833,474.333 675.5,474C 678.036,473.814 680.369,473.314 682.5,472.5C 684.099,472.768 685.432,472.434 686.5,471.5C 690.371,471.815 694.038,471.482 697.5,470.5C 698.492,470.672 699.158,470.338 699.5,469.5C 703.042,469.813 706.375,469.479 709.5,468.5C 711.099,468.768 712.432,468.434 713.5,467.5 Z"/></g>
<g><path style="opacity:0.251" fill="#b0cbec" d="M 702.5,474.5 C 704.199,474.34 705.866,474.506 707.5,475C 707.167,475.333 706.833,475.667 706.5,476C 703.304,476.805 700.304,476.638 697.5,475.5C 699.415,475.784 701.081,475.451 702.5,474.5 Z"/></g>
<g><path style="opacity:0.278" fill="#c3bfce" d="M 682.5,477.5 C 688.379,476.239 694.379,476.406 700.5,478C 694.449,478.746 688.449,478.579 682.5,477.5 Z"/></g>
<g><path style="opacity:0.451" fill="#518be0" d="M 353.5,491.5 C 329.672,492.498 305.672,492.831 281.5,492.5C 281.5,495.833 281.5,499.167 281.5,502.5C 280.518,499.038 280.185,495.371 280.5,491.5C 304.833,491.5 329.167,491.5 353.5,491.5 Z"/></g>
<g><path style="opacity:0.448" fill="#518ae3" d="M 471.5,491.5 C 495.833,491.5 520.167,491.5 544.5,491.5C 544.815,495.371 544.482,499.038 543.5,502.5C 543.5,499.167 543.5,495.833 543.5,492.5C 519.328,492.831 495.328,492.498 471.5,491.5 Z"/></g>
</svg>
