<?xml version="1.0" encoding="UTF-8"?>
<!DOCTYPE svg PUBLIC "-//W3C//DTD SVG 1.1//EN" "http://www.w3.org/Graphics/SVG/1.1/DTD/svg11.dtd">
<svg xmlns="http://www.w3.org/2000/svg" version="1.1" width="1000px" height="719px" style="shape-rendering:geometricPrecision; text-rendering:geometricPrecision; image-rendering:optimizeQuality; fill-rule:evenodd; clip-rule:evenodd" xmlns:xlink="http://www.w3.org/1999/xlink">
<g><path style="opacity:1" fill="#3e3d56" d="M 235.5,-0.5 C 251.167,-0.5 266.833,-0.5 282.5,-0.5C 281.289,9.18527 284.289,17.1853 291.5,23.5C 293.649,25.7458 296.316,27.2458 299.5,28C 310.495,28.4998 321.495,28.6665 332.5,28.5C 353.938,99.4436 398.604,149.944 466.5,180C 485.796,188.043 505.796,193.543 526.5,196.5C 528.333,196.415 529.666,195.748 530.5,194.5C 530.17,176.326 530.503,158.326 531.5,140.5C 531.5,159.5 531.5,178.5 531.5,197.5C 530.167,288.167 530.167,378.833 531.5,469.5C 517.231,481.26 503.064,493.26 489,505.5C 485.433,502.023 482.1,498.356 479,494.5C 478.261,495.574 477.261,496.241 476,496.5C 470.369,494.479 469.536,491.479 473.5,487.5C 472.5,485.833 471.167,484.5 469.5,483.5C 467.833,484.833 466.167,486.167 464.5,487.5C 465.167,488.5 465.833,489.5 466.5,490.5C 465.018,492.483 463.351,494.316 461.5,496C 459.613,496.163 458.113,495.329 457,493.5C 454.261,496.118 451.427,498.618 448.5,501C 450.049,502.214 451.215,503.714 452,505.5C 455.753,502.975 458.586,503.975 460.5,508.5C 459.395,509.892 458.061,511.059 456.5,512C 459.358,515.358 462.025,518.858 464.5,522.5C 461.354,525.145 458.354,527.978 455.5,531C 458.013,535.51 461.346,539.343 465.5,542.5C 485.56,525.101 505.894,508.101 526.5,491.5C 528.062,491.267 529.395,490.6 530.5,489.5C 530.5,551.167 530.5,612.833 530.5,674.5C 543.872,674.691 557.205,675.525 570.5,677C 563.702,684.456 557.702,692.456 552.5,701C 553.429,708.734 557.763,711.568 565.5,709.5C 573.043,709.783 580.21,708.449 587,705.5C 591.599,701.174 596.099,696.674 600.5,692C 606.072,688.056 611.738,684.39 617.5,681C 626.098,679.624 634.765,679.124 643.5,679.5C 644.5,679.5 645.5,679.5 646.5,679.5C 650.591,680.895 654.924,681.562 659.5,681.5C 659.656,684.066 659.322,686.566 658.5,689C 660.395,691.652 662.895,693.486 666,694.5C 667.896,697.238 669.229,700.238 670,703.5C 670.903,704.701 672.069,705.535 673.5,706C 676.758,706.212 679.924,706.712 683,707.5C 688.35,706.411 693.517,706.411 698.5,707.5C 703.253,704.427 704.753,700.094 703,694.5C 701.998,690.836 700.164,687.669 697.5,685C 705.151,685.069 712.818,685.236 720.5,685.5C 721.5,685.5 722.5,685.5 723.5,685.5C 727.054,686.249 730.72,687.082 734.5,688C 751.159,689.366 767.825,690.533 784.5,691.5C 786.924,691.808 789.257,691.474 791.5,690.5C 786.167,679.833 780.833,669.167 775.5,658.5C 775.833,658.167 776.167,657.833 776.5,657.5C 787.174,666.179 797.507,675.179 807.5,684.5C 808.292,686.257 809.625,687.591 811.5,688.5C 816.032,666.909 822.365,645.909 830.5,625.5C 833.559,621.063 836.392,616.397 839,611.5C 842.336,607.332 845.836,603.332 849.5,599.5C 852.223,596.805 855.557,595.138 859.5,594.5C 859.833,595.167 860.167,595.833 860.5,596.5C 852.727,624.762 844.727,652.929 836.5,681C 844.842,677.332 853.175,673.332 861.5,669C 864.465,667.502 867.465,667.335 870.5,668.5C 864.626,678.417 858.626,688.25 852.5,698C 870.635,700.515 888.635,703.015 906.5,705.5C 935.556,709.444 964.556,713.778 993.5,718.5C 984.5,718.5 975.5,718.5 966.5,718.5C 644.827,713.59 323.16,708.256 1.5,702.5C 35.1602,695.215 69.1602,689.881 103.5,686.5C 105.833,686.5 108.167,686.5 110.5,686.5C 109.42,668.188 108.753,649.854 108.5,631.5C 110.72,612.507 113.72,593.507 117.5,574.5C 117.565,571.572 118.232,568.905 119.5,566.5C 126.901,542.958 134.568,519.291 142.5,495.5C 150.162,473.852 159.162,452.852 169.5,432.5C 173.559,425.386 177.392,418.052 181,410.5C 170.097,439.215 160.763,468.548 153,498.5C 145.021,530.708 140.187,563.375 138.5,596.5C 137.021,606.459 136.354,616.626 136.5,627C 136.667,633.5 136.833,640 137,646.5C 137.717,645.956 138.217,645.289 138.5,644.5C 149.329,632.419 161.996,622.753 176.5,615.5C 179.088,613.408 182.088,612.075 185.5,611.5C 191.73,610.147 197.897,608.48 204,606.5C 206.578,606.682 207.078,607.682 205.5,609.5C 199.909,614.966 193.909,619.966 187.5,624.5C 179.255,631.24 171.422,638.573 164,646.5C 163.536,647.094 163.369,647.761 163.5,648.5C 159.543,654.457 155.21,660.123 150.5,665.5C 146.21,670.409 143.21,676.076 141.5,682.5C 165.853,681.088 190.186,679.422 214.5,677.5C 213.535,643.854 213.202,610.187 213.5,576.5C 216.193,575.448 218.86,574.448 221.5,573.5C 221.719,572.325 221.386,571.325 220.5,570.5C 218.261,571.788 215.928,572.788 213.5,573.5C 213.5,405.833 213.5,238.167 213.5,70.5C 213.167,70.5 212.833,70.5 212.5,70.5C 212.5,69.5 212.5,68.5 212.5,67.5C 213.331,53.0057 213.831,38.3391 214,23.5C 215.43,20.6473 216.263,17.6473 216.5,14.5C 221.395,7.59734 227.728,2.59734 235.5,-0.5 Z M 150.5,665.5 C 155.21,660.123 159.543,654.457 163.5,648.5C 171.833,640.833 179.833,632.833 187.5,624.5C 193.909,619.966 199.909,614.966 205.5,609.5C 207.764,608.419 209.931,607.085 212,605.5C 212.833,628.84 212.666,652.174 211.5,675.5C 188.524,677.72 165.524,679.554 142.5,681C 145.32,675.858 147.987,670.692 150.5,665.5 Z"/></g>
<g><path style="opacity:0.176" fill="#0a090e" d="M 508.5,-0.5 C 510.167,-0.5 511.833,-0.5 513.5,-0.5C 519.107,2.10648 523.44,6.10648 526.5,11.5C 521.461,5.986 515.461,1.986 508.5,-0.5 Z"/></g>
<g><path style="opacity:0.545" fill="#121118" d="M 231.5,-0.5 C 232.833,-0.5 234.167,-0.5 235.5,-0.5C 227.728,2.59734 221.395,7.59734 216.5,14.5C 219.84,7.82712 224.84,2.82712 231.5,-0.5 Z"/></g>
<g><path style="opacity:0.027" fill="#06060a" d="M 459.5,-0.5 C 459.833,-0.5 460.167,-0.5 460.5,-0.5C 461.619,7.305 459.785,14.305 455,20.5C 454.329,21.2524 453.496,21.5858 452.5,21.5C 458.03,15.2408 460.364,7.90745 459.5,-0.5 Z"/></g>
<g><path style="opacity:0.235" fill="#101015" d="M 216.5,14.5 C 216.263,17.6473 215.43,20.6473 214,23.5C 213.831,38.3391 213.331,53.0057 212.5,67.5C 212.333,52.4963 212.5,37.4963 213,22.5C 213.387,19.4006 214.554,16.734 216.5,14.5 Z"/></g>
<g><path style="opacity:0.31" fill="#14131c" d="M 291.5,23.5 C 294.965,25.2287 298.631,26.3953 302.5,27C 349.852,27.8088 397.185,27.6421 444.5,26.5C 443.737,27.2679 442.737,27.7679 441.5,28C 425.837,28.4999 410.17,28.6666 394.5,28.5C 393.5,28.5 392.5,28.5 391.5,28.5C 372.5,28.5 353.5,28.5 334.5,28.5C 333.833,28.5 333.167,28.5 332.5,28.5C 321.495,28.6665 310.495,28.4998 299.5,28C 296.316,27.2458 293.649,25.7458 291.5,23.5 Z"/></g>
<g><path style="opacity:1" fill="#e77f00" d="M 332.5,28.5 C 333.167,28.5 333.833,28.5 334.5,28.5C 360.349,108.516 413.349,161.349 493.5,187C 505.646,190.462 517.979,192.962 530.5,194.5C 529.666,195.748 528.333,196.415 526.5,196.5C 505.796,193.543 485.796,188.043 466.5,180C 398.604,149.944 353.938,99.4436 332.5,28.5 Z"/></g>
<g><path style="opacity:1" fill="#3e3d57" d="M 460.5,-0.5 C 476.5,-0.5 492.5,-0.5 508.5,-0.5C 515.461,1.986 521.461,5.986 526.5,11.5C 528.271,15.3791 529.771,19.3791 531,23.5C 531.5,62.4986 531.667,101.499 531.5,140.5C 530.503,158.326 530.17,176.326 530.5,194.5C 517.979,192.962 505.646,190.462 493.5,187C 413.349,161.349 360.349,108.516 334.5,28.5C 353.5,28.5 372.5,28.5 391.5,28.5C 417.837,89.8269 463.837,126.827 529.5,139.5C 530.711,138.726 530.711,137.893 529.5,137C 473.704,126.172 431.537,96.3384 403,47.5C 399.606,41.3814 396.772,35.0481 394.5,28.5C 410.17,28.6666 425.837,28.4999 441.5,28C 442.737,27.7679 443.737,27.2679 444.5,26.5C 447.131,24.8474 449.797,23.1807 452.5,21.5C 453.496,21.5858 454.329,21.2524 455,20.5C 459.785,14.305 461.619,7.305 460.5,-0.5 Z"/></g>
<g><path style="opacity:1" fill="#e77f00" d="M 452.5,22.5 C 466.572,44.7296 485.572,61.5629 509.5,73C 516.301,75.8787 523.301,78.0454 530.5,79.5C 530.719,80.675 530.386,81.675 529.5,82.5C 495.569,73.381 469.569,53.881 451.5,24C 452.056,23.6174 452.389,23.1174 452.5,22.5 Z"/></g>
<g><path style="opacity:1" fill="#e77f00" d="M 391.5,28.5 C 392.5,28.5 393.5,28.5 394.5,28.5C 396.772,35.0481 399.606,41.3814 403,47.5C 431.537,96.3384 473.704,126.172 529.5,137C 530.711,137.893 530.711,138.726 529.5,139.5C 463.837,126.827 417.837,89.8269 391.5,28.5 Z"/></g>
<g><path style="opacity:1" fill="#2e2d41" d="M 707.5,58.5 C 719.196,70.6865 726.029,85.3531 728,102.5C 730.041,117.282 731.541,132.115 732.5,147C 732.423,156.706 731.089,166.206 728.5,175.5C 722.45,170.376 715.617,167.709 708,167.5C 705.833,179.667 703.667,191.833 701.5,204C 704.038,217.691 706.705,231.358 709.5,245C 709.684,246.376 710.351,247.209 711.5,247.5C 710.445,250.073 710.278,252.739 711,255.5C 712.168,259.669 713.334,263.836 714.5,268C 713.573,272.687 711.239,276.521 707.5,279.5C 715.715,295.273 722.881,311.606 729,328.5C 729.5,312.503 729.667,296.503 729.5,280.5C 730.332,298.329 730.832,316.329 731,334.5C 733.774,341.685 736.607,348.685 739.5,355.5C 743.401,364.53 746.734,373.863 749.5,383.5C 749.43,384.772 749.097,385.938 748.5,387C 743.752,390.041 738.752,392.541 733.5,394.5C 733.167,394.5 732.833,394.5 732.5,394.5C 712.941,401.019 693.274,407.353 673.5,413.5C 667.222,414.824 660.888,415.824 654.5,416.5C 652.833,416.5 651.167,416.5 649.5,416.5C 632.316,414.996 615.483,411.663 599,406.5C 598.098,406.743 597.265,407.077 596.5,407.5C 595.5,406.833 594.5,406.167 593.5,405.5C 593.5,401.5 593.5,397.5 593.5,393.5C 594.833,393.167 594.833,392.833 593.5,392.5C 593.5,390.167 593.5,387.833 593.5,385.5C 594.268,386.263 594.768,387.263 595,388.5C 597.872,373.808 600.872,359.142 604,344.5C 606.032,325.54 608.865,306.874 612.5,288.5C 613.833,288.5 615.167,288.5 616.5,288.5C 616.013,284.691 615.679,280.858 615.5,277C 616.302,261.17 616.969,245.337 617.5,229.5C 617.626,220.121 618.292,210.788 619.5,201.5C 619.21,190.786 617.544,180.453 614.5,170.5C 613.735,167.904 613.401,165.237 613.5,162.5C 607.448,163.629 601.448,164.963 595.5,166.5C 595.167,166.5 594.833,166.5 594.5,166.5C 595.234,155.395 596.734,144.395 599,133.5C 603.379,125.124 609.213,117.957 616.5,112C 595.809,121.339 574.809,130.172 553.5,138.5C 552.761,138.631 552.094,138.464 551.5,138C 565.466,126.683 580.132,116.349 595.5,107C 603.788,101.047 611.788,94.7141 619.5,88C 630.394,76.275 641.394,64.775 652.5,53.5C 660.343,47.1234 669.343,44.9568 679.5,47C 686.155,50.3324 693.155,52.6657 700.5,54C 703.239,55.0259 705.572,56.5259 707.5,58.5 Z"/></g>
<g><path style="opacity:0.235" fill="#131319" d="M 212.5,70.5 C 212.833,70.5 213.167,70.5 213.5,70.5C 213.5,238.167 213.5,405.833 213.5,573.5C 213.5,574.5 213.5,575.5 213.5,576.5C 213.202,610.187 213.535,643.854 214.5,677.5C 190.186,679.422 165.853,681.088 141.5,682.5C 143.21,676.076 146.21,670.409 150.5,665.5C 147.987,670.692 145.32,675.858 142.5,681C 165.524,679.554 188.524,677.72 211.5,675.5C 212.666,652.174 212.833,628.84 212,605.5C 209.931,607.085 207.764,608.419 205.5,609.5C 207.078,607.682 206.578,606.682 204,606.5C 197.897,608.48 191.73,610.147 185.5,611.5C 194.088,608.026 202.922,605.026 212,602.5C 212.5,425.167 212.667,247.834 212.5,70.5 Z"/></g>
<g><path style="opacity:1" fill="#c6c6cc" d="M 213.5,70.5 C 213.47,69.5028 213.97,68.8361 215,68.5C 217.234,69.7015 219.401,71.0348 221.5,72.5C 218.667,73.117 216,72.4503 213.5,70.5 Z"/></g>
<g><path style="opacity:1" fill="#cbcbd0" d="M 232.5,79.5 C 236.677,81.4259 240.344,84.0926 243.5,87.5C 242.21,88.4077 240.877,88.241 239.5,87C 236.261,85.2636 233.927,82.7636 232.5,79.5 Z"/></g>
<g><path style="opacity:1" fill="#fcb7b7" d="M 682.5,136.5 C 675.446,137.958 668.446,137.791 661.5,136C 655.309,132.307 650.309,127.474 646.5,121.5C 643.661,114.449 642.827,107.115 644,99.5C 645.161,95.1698 647.327,91.5032 650.5,88.5C 663.129,97.1473 676.795,103.647 691.5,108C 695.821,108.499 700.154,108.666 704.5,108.5C 702.631,122.345 695.298,131.678 682.5,136.5 Z"/></g>
<g><path style="opacity:1" fill="#e8e8ea" d="M 282.5,99.5 C 290.382,98.546 293.549,101.879 292,109.5C 287.902,114.804 283.902,114.804 280,109.5C 278.861,105.579 279.695,102.246 282.5,99.5 Z"/></g>
<g><path style="opacity:1" fill="#c6c6cc" d="M 254.5,97.5 C 257.771,99.5912 260.937,101.924 264,104.5C 264.749,105.635 264.583,106.635 263.5,107.5C 259.743,104.749 256.743,101.415 254.5,97.5 Z"/></g>
<g><path style="opacity:0.137" fill="#0a0a0f" d="M 652.5,53.5 C 641.394,64.775 630.394,76.275 619.5,88C 611.788,94.7141 603.788,101.047 595.5,107C 580.132,116.349 565.466,126.683 551.5,138C 552.094,138.464 552.761,138.631 553.5,138.5C 552.105,140.3 550.439,140.634 548.5,139.5C 550.316,137.183 552.316,135.016 554.5,133C 573.777,120.056 592.777,106.722 611.5,93C 617.969,87.5323 624.136,81.699 630,75.5C 636.064,66.6017 643.564,59.2684 652.5,53.5 Z"/></g>
<g><path style="opacity:0.024" fill="#040406" d="M 707.5,58.5 C 712.504,61.3382 716.337,65.3382 719,70.5C 723.931,79.9583 727.264,89.9583 729,100.5C 731.031,116.477 732.864,132.477 734.5,148.5C 733.986,157.736 732.319,166.736 729.5,175.5C 729.167,175.5 728.833,175.5 728.5,175.5C 731.089,166.206 732.423,156.706 732.5,147C 731.541,132.115 730.041,117.282 728,102.5C 726.029,85.3531 719.196,70.6865 707.5,58.5 Z"/></g>
<g><path style="opacity:1" fill="#cdcdd1" d="M 273.5,116.5 C 277.138,119.144 280.138,122.478 282.5,126.5C 282.167,126.833 281.833,127.167 281.5,127.5C 278.777,125.066 276.277,122.399 274,119.5C 273.517,118.552 273.351,117.552 273.5,116.5 Z"/></g>
<g><path style="opacity:1" fill="#ec617f" d="M 459.5,119.5 C 462.712,119.106 465.046,120.272 466.5,123C 466.241,124.261 465.574,125.261 464.5,126C 462.527,126.495 460.527,126.662 458.5,126.5C 458.298,124.05 458.631,121.717 459.5,119.5 Z"/></g>
<g><path style="opacity:1" fill="#e1a5a7" d="M 646.5,121.5 C 650.309,127.474 655.309,132.307 661.5,136C 668.446,137.791 675.446,137.958 682.5,136.5C 681.332,139.178 680.166,141.845 679,144.5C 677.781,152.446 680.948,157.779 688.5,160.5C 684.823,165.348 679.823,168.181 673.5,169C 661.741,169.935 650.074,169.269 638.5,167C 633.665,166.226 629.332,164.392 625.5,161.5C 625.062,161.565 624.728,161.399 624.5,161C 625.167,159.667 625.833,158.333 626.5,157C 638.655,152.868 645.155,144.368 646,131.5C 646.498,128.183 646.665,124.85 646.5,121.5 Z"/></g>
<g><path style="opacity:1" fill="#c9c9cf" d="M 289.5,138.5 C 291.624,139.031 293.124,140.365 294,142.5C 295.167,144.833 296.333,147.167 297.5,149.5C 297.167,149.833 296.833,150.167 296.5,150.5C 293.305,146.979 290.972,142.979 289.5,138.5 Z"/></g>
<g><path style="opacity:1" fill="#e77f00" d="M 688.5,160.5 C 693.395,160.096 696.062,162.263 696.5,167C 694.444,178.168 692.444,189.335 690.5,200.5C 670.581,207.941 650.581,208.274 630.5,201.5C 628.646,188.191 626.98,174.858 625.5,161.5C 629.332,164.392 633.665,166.226 638.5,167C 650.074,169.269 661.741,169.935 673.5,169C 679.823,168.181 684.823,165.348 688.5,160.5 Z"/></g>
<g><path style="opacity:1" fill="#e77e00" d="M 614.5,170.5 C 615.717,181.037 617.384,191.37 619.5,201.5C 618.292,210.788 617.626,220.121 617.5,229.5C 616.175,238.638 615.341,247.972 615,257.5C 614.563,267.675 614.397,277.675 614.5,287.5C 612.444,284.555 610.777,281.388 609.5,278C 609.95,276.715 610.617,275.548 611.5,274.5C 608.358,270.278 607.691,265.612 609.5,260.5C 607.486,249.595 606.319,238.595 606,227.5C 605.329,226.748 604.496,226.414 603.5,226.5C 603.167,226.5 602.833,226.5 602.5,226.5C 593.34,225.223 584.006,224.223 574.5,223.5C 576.241,208.96 579.075,194.626 583,180.5C 586.319,175.017 590.486,170.351 595.5,166.5C 601.448,164.963 607.448,163.629 613.5,162.5C 613.401,165.237 613.735,167.904 614.5,170.5 Z"/></g>
<g><path style="opacity:1" fill="#e77e00" d="M 728.5,175.5 C 730.625,180.73 731.958,186.063 732.5,191.5C 733.394,201.496 733.894,211.496 734,221.5C 733.005,222.066 732.172,222.733 731.5,223.5C 729.585,223.216 727.919,223.549 726.5,224.5C 722.575,224.43 718.909,225.097 715.5,226.5C 715.596,233.78 714.263,240.78 711.5,247.5C 710.351,247.209 709.684,246.376 709.5,245C 706.705,231.358 704.038,217.691 701.5,204C 703.667,191.833 705.833,179.667 708,167.5C 715.617,167.709 722.45,170.376 728.5,175.5 Z"/></g>
<g><path style="opacity:1" fill="#c5c5cb" d="M 302.5,163.5 C 303.5,163.5 304.5,163.5 305.5,163.5C 306.673,167.355 308.006,171.188 309.5,175C 309.167,175.5 308.833,176 308.5,176.5C 306.115,172.346 304.115,168.013 302.5,163.5 Z"/></g>
<g><path style="opacity:0.035" fill="#15285a" d="M 728.5,175.5 C 728.833,175.5 729.167,175.5 729.5,175.5C 731.982,177.503 732.982,180.169 732.5,183.5C 732.5,186.167 732.5,188.833 732.5,191.5C 731.958,186.063 730.625,180.73 728.5,175.5 Z"/></g>
<g><path style="opacity:0.325" fill="#0d2658" d="M 594.5,166.5 C 594.833,166.5 595.167,166.5 595.5,166.5C 590.486,170.351 586.319,175.017 583,180.5C 579.075,194.626 576.241,208.96 574.5,223.5C 574.5,223.833 574.5,224.167 574.5,224.5C 573.414,224.38 572.747,223.713 572.5,222.5C 574.628,208.359 577.462,194.359 581,180.5C 584.353,174.649 588.853,169.982 594.5,166.5 Z"/></g>
<g><path style="opacity:1" fill="#2a3f78" d="M 614.5,170.5 C 617.544,180.453 619.21,190.786 619.5,201.5C 617.384,191.37 615.717,181.037 614.5,170.5 Z"/></g>
<g><path style="opacity:1" fill="#c1c1c7" d="M 312.5,189.5 C 313.496,189.414 314.329,189.748 315,190.5C 316.283,194.414 317.116,198.414 317.5,202.5C 316.5,202.5 315.5,202.5 314.5,202.5C 314.575,198.019 313.908,193.686 312.5,189.5 Z"/></g>
<g><path style="opacity:0.082" fill="#050507" d="M 526.5,11.5 C 529.362,14.557 531.195,18.2236 532,22.5C 532.167,170.667 532.667,318.667 533.5,466.5C 533.5,467.167 533.5,467.833 533.5,468.5C 533.167,468.5 532.833,468.5 532.5,468.5C 531.501,378.335 531.167,288.002 531.5,197.5C 531.5,178.5 531.5,159.5 531.5,140.5C 531.667,101.499 531.5,62.4986 531,23.5C 529.771,19.3791 528.271,15.3791 526.5,11.5 Z"/></g>
<g><path style="opacity:1" fill="#868ad0" d="M 574.5,224.5 C 574.5,224.167 574.5,223.833 574.5,223.5C 584.006,224.223 593.34,225.223 602.5,226.5C 594.495,226.269 586.495,225.935 578.5,225.5C 577.791,224.596 576.791,224.263 575.5,224.5C 575.167,224.5 574.833,224.5 574.5,224.5 Z"/></g>
<g><path style="opacity:1" fill="#e0a3a5" d="M 731.5,223.5 C 730.06,242.469 729.393,261.469 729.5,280.5C 729.667,296.503 729.5,312.503 729,328.5C 722.881,311.606 715.715,295.273 707.5,279.5C 711.239,276.521 713.573,272.687 714.5,268C 713.334,263.836 712.168,259.669 711,255.5C 710.278,252.739 710.445,250.073 711.5,247.5C 714.263,240.78 715.596,233.78 715.5,226.5C 719.425,226.57 723.091,225.903 726.5,224.5C 727.919,223.549 729.585,223.216 731.5,223.5 Z"/></g>
<g><path style="opacity:1" fill="#fbb6b6" d="M 578.5,225.5 C 586.495,225.935 594.495,226.269 602.5,226.5C 602.833,226.5 603.167,226.5 603.5,226.5C 604.436,230.735 604.769,235.069 604.5,239.5C 604.741,264.181 604.407,288.847 603.5,313.5C 602.239,316.258 601.406,319.258 601,322.5C 600,330.16 599.167,337.827 598.5,345.5C 596.127,351.489 595.127,357.822 595.5,364.5C 594.239,367.258 593.406,370.258 593,373.5C 592.859,391.542 592.026,409.542 590.5,427.5C 590.5,427.833 590.5,428.167 590.5,428.5C 588.787,429.635 588.12,431.302 588.5,433.5C 585.655,437.395 582.822,437.395 580,433.5C 578.208,429 577.375,424.333 577.5,419.5C 577.5,412.833 577.5,406.167 577.5,399.5C 578.972,395.081 579.638,390.414 579.5,385.5C 580.995,332.312 580.662,278.978 578.5,225.5 Z"/></g>
<g><path style="opacity:1" fill="#818ad2" d="M 726.5,224.5 C 723.091,225.903 719.425,226.57 715.5,226.5C 718.909,225.097 722.575,224.43 726.5,224.5 Z"/></g>
<g><path style="opacity:1" fill="#bbbac2" d="M 318.5,215.5 C 319.496,215.414 320.329,215.748 321,216.5C 321.735,220.813 322.235,225.147 322.5,229.5C 321.5,229.5 320.5,229.5 319.5,229.5C 319.167,224.833 318.833,220.167 318.5,215.5 Z"/></g>
<g><path style="opacity:1" fill="#364575" d="M 388.5,297.5 C 378.833,297.5 369.167,297.5 359.5,297.5C 340.208,278.472 317.874,274.306 292.5,285C 286.993,288.684 281.993,292.851 277.5,297.5C 277.167,297.5 276.833,297.5 276.5,297.5C 267.167,297.5 257.833,297.5 248.5,297.5C 270.28,262.615 301.28,249.782 341.5,259C 362.299,265.712 377.966,278.545 388.5,297.5 Z"/></g>
<g><path style="opacity:1" fill="#243a73" d="M 603.5,226.5 C 604.496,226.414 605.329,226.748 606,227.5C 606.319,238.595 607.486,249.595 609.5,260.5C 607.691,265.612 608.358,270.278 611.5,274.5C 610.617,275.548 609.95,276.715 609.5,278C 610.777,281.388 612.444,284.555 614.5,287.5C 614.397,277.675 614.563,267.675 615,257.5C 615.341,247.972 616.175,238.638 617.5,229.5C 616.969,245.337 616.302,261.17 615.5,277C 615.679,280.858 616.013,284.691 616.5,288.5C 615.167,288.5 613.833,288.5 612.5,288.5C 611.872,285.91 610.705,283.577 609,281.5C 608.231,278.901 608.398,276.401 609.5,274C 608.26,272.27 607.26,270.437 606.5,268.5C 607.851,266.588 608.518,264.422 608.5,262C 607.692,256.843 607.025,251.676 606.5,246.5C 605.935,244.048 605.268,241.715 604.5,239.5C 604.769,235.069 604.436,230.735 603.5,226.5 Z"/></g>
<g><path style="opacity:0.331" fill="#402f2f" d="M 604.5,239.5 C 605.268,241.715 605.935,244.048 606.5,246.5C 605.333,261.503 605.333,276.67 606.5,292C 606.506,299.442 605.506,306.609 603.5,313.5C 604.407,288.847 604.741,264.181 604.5,239.5 Z"/></g>
<g><path style="opacity:1" fill="#304c8f" d="M 359.5,297.5 C 347.988,297.172 336.654,297.505 325.5,298.5C 320.833,298.5 316.167,298.5 311.5,298.5C 300.346,297.505 289.012,297.172 277.5,297.5C 281.993,292.851 286.993,288.684 292.5,285C 317.874,274.306 340.208,278.472 359.5,297.5 Z"/></g>
<g><path style="opacity:0.012" fill="#110f19" d="M 732.5,183.5 C 735.092,196.282 736.092,209.282 735.5,222.5C 733.176,222.877 732.509,223.877 733.5,225.5C 731.994,239.771 730.994,254.104 730.5,268.5C 731.195,289.828 731.695,311.161 732,332.5C 735.006,340.019 737.506,347.686 739.5,355.5C 736.607,348.685 733.774,341.685 731,334.5C 730.832,316.329 730.332,298.329 729.5,280.5C 729.393,261.469 730.06,242.469 731.5,223.5C 732.172,222.733 733.005,222.066 734,221.5C 733.894,211.496 733.394,201.496 732.5,191.5C 732.5,188.833 732.5,186.167 732.5,183.5 Z"/></g>
<g><path style="opacity:1" fill="#a7b0c9" d="M 248.5,297.5 C 257.833,297.5 267.167,297.5 276.5,297.5C 276.5,298.167 276.167,298.5 275.5,298.5C 266.5,298.5 257.5,298.5 248.5,298.5C 240.5,298.5 232.5,298.5 224.5,298.5C 224.5,305.5 224.5,312.5 224.5,319.5C 223.508,312.352 223.175,305.019 223.5,297.5C 231.833,297.5 240.167,297.5 248.5,297.5 Z"/></g>
<g><path style="opacity:1" fill="#fcfdfd" d="M 248.5,298.5 C 239.595,314.43 237.261,331.263 241.5,349C 241.272,349.399 240.938,349.565 240.5,349.5C 235.953,344.763 232.12,339.43 229,333.5C 227.788,328.62 226.288,323.953 224.5,319.5C 224.5,312.5 224.5,305.5 224.5,298.5C 232.5,298.5 240.5,298.5 248.5,298.5 Z"/></g>
<g><path style="opacity:1" fill="#cfdffb" d="M 248.5,298.5 C 257.5,298.5 266.5,298.5 275.5,298.5C 258.509,321.77 258.176,345.27 274.5,369C 274.272,369.399 273.938,369.565 273.5,369.5C 261.483,366.797 251.15,361.13 242.5,352.5C 241.094,352.027 240.427,351.027 240.5,349.5C 240.938,349.565 241.272,349.399 241.5,349C 237.261,331.263 239.595,314.43 248.5,298.5 Z"/></g>
<g><path style="opacity:1" fill="#a6c3f8" d="M 276.5,297.5 C 276.833,297.5 277.167,297.5 277.5,297.5C 289.012,297.172 300.346,297.505 311.5,298.5C 288.175,306.129 279.008,322.129 284,346.5C 288.908,358.911 297.741,366.911 310.5,370.5C 299.295,371.8 287.961,371.8 276.5,370.5C 275.209,370.737 274.209,370.404 273.5,369.5C 273.938,369.565 274.272,369.399 274.5,369C 258.176,345.27 258.509,321.77 275.5,298.5C 276.167,298.5 276.5,298.167 276.5,297.5 Z"/></g>
<g><path style="opacity:1" fill="#e77f00" d="M 311.5,298.5 C 316.167,298.5 320.833,298.5 325.5,298.5C 348.83,306.141 357.997,322.141 353,346.5C 348.117,358.884 339.284,366.884 326.5,370.5C 321.167,371.833 315.833,371.833 310.5,370.5C 297.741,366.911 288.908,358.911 284,346.5C 279.008,322.129 288.175,306.129 311.5,298.5 Z"/></g>
<g><path style="opacity:1" fill="#a6c3f8" d="M 359.5,297.5 C 369.167,297.5 378.833,297.5 388.5,297.5C 379.676,298.33 370.676,298.83 361.5,299C 375.32,316.472 378.154,335.639 370,356.5C 367.143,361.555 364.309,366.555 361.5,371.5C 360.833,371.5 360.167,371.5 359.5,371.5C 348.321,371.828 337.321,371.495 326.5,370.5C 339.284,366.884 348.117,358.884 353,346.5C 357.997,322.141 348.83,306.141 325.5,298.5C 336.654,297.505 347.988,297.172 359.5,297.5 Z"/></g>
<g><path style="opacity:1" fill="#cfdef9" d="M 388.5,297.5 C 413.006,297.169 437.339,297.502 461.5,298.5C 437.491,298.167 413.491,298.5 389.5,299.5C 400.329,323.717 399.996,347.717 388.5,371.5C 379.5,371.5 370.5,371.5 361.5,371.5C 364.309,366.555 367.143,361.555 370,356.5C 378.154,335.639 375.32,316.472 361.5,299C 370.676,298.83 379.676,298.33 388.5,297.5 Z"/></g>
<g><path style="opacity:1" fill="#fdfefe" d="M 461.5,298.5 C 493.309,302.664 513.143,320.331 521,351.5C 521.5,358.158 521.666,364.825 521.5,371.5C 477.167,371.5 432.833,371.5 388.5,371.5C 399.996,347.717 400.329,323.717 389.5,299.5C 413.491,298.5 437.491,298.167 461.5,298.5 Z"/></g>
<g><path style="opacity:0.453" fill="#4a3636" d="M 575.5,224.5 C 576.791,224.263 577.791,224.596 578.5,225.5C 580.662,278.978 580.995,332.312 579.5,385.5C 578.756,349.995 578.756,314.495 579.5,279C 579.263,260.691 577.929,242.525 575.5,224.5 Z"/></g>
<g><path style="opacity:0.635" fill="#282637" d="M 531.5,197.5 C 531.167,288.002 531.501,378.335 532.5,468.5C 532.5,469.167 532.167,469.5 531.5,469.5C 530.167,378.833 530.167,288.167 531.5,197.5 Z"/></g>
<g><path style="opacity:1" fill="#f0f4fe" d="M 324.5,342.5 C 324.5,344.5 324.5,346.5 324.5,348.5C 320.5,348.5 316.5,348.5 312.5,348.5C 313.423,344.218 314.089,339.884 314.5,335.5C 314.444,333.36 313.777,331.694 312.5,330.5C 310.615,322.882 313.615,319.382 321.5,320C 326.161,323.977 326.828,328.644 323.5,334C 324.216,336.792 324.549,339.626 324.5,342.5 Z"/></g>
<g><path style="opacity:0.224" fill="#473434" d="M 603.5,313.5 C 602.562,324.409 600.896,335.076 598.5,345.5C 599.167,337.827 600,330.16 601,322.5C 601.406,319.258 602.239,316.258 603.5,313.5 Z"/></g>
<g><path style="opacity:1" fill="#96b8f8" d="M 312.5,330.5 C 313.777,331.694 314.444,333.36 314.5,335.5C 314.089,339.884 313.423,344.218 312.5,348.5C 316.5,348.5 320.5,348.5 324.5,348.5C 324.5,346.5 324.5,344.5 324.5,342.5C 325.468,344.607 325.802,346.941 325.5,349.5C 320.833,349.5 316.167,349.5 311.5,349.5C 311.838,344.298 312.505,339.131 313.5,334C 313.352,332.744 313.018,331.577 312.5,330.5 Z"/></g>
<g><path style="opacity:0.4" fill="#584040" d="M 598.5,345.5 C 598.236,352.078 597.236,358.411 595.5,364.5C 595.127,357.822 596.127,351.489 598.5,345.5 Z"/></g>
<g><path style="opacity:1" fill="#364575" d="M 242.5,352.5 C 251.15,361.13 261.483,366.797 273.5,369.5C 274.209,370.404 275.209,370.737 276.5,370.5C 288.652,384.511 304.152,391.511 323,391.5C 337.325,388.591 349.491,381.924 359.5,371.5C 360.167,371.5 360.833,371.5 361.5,371.5C 370.5,371.5 379.5,371.5 388.5,371.5C 369.017,403.239 340.684,416.739 303.5,412C 274.418,405.589 254.585,388.422 244,360.5C 243.433,357.832 242.933,355.166 242.5,352.5 Z"/></g>
<g><path style="opacity:1" fill="#304c8f" d="M 276.5,370.5 C 287.961,371.8 299.295,371.8 310.5,370.5C 315.833,371.833 321.167,371.833 326.5,370.5C 337.321,371.495 348.321,371.828 359.5,371.5C 349.491,381.924 337.325,388.591 323,391.5C 304.152,391.511 288.652,384.511 276.5,370.5 Z"/></g>
<g><path style="opacity:0.542" fill="#715761" d="M 595.5,364.5 C 594.724,371.489 594.057,378.489 593.5,385.5C 593.5,387.833 593.5,390.167 593.5,392.5C 593.5,392.833 593.5,393.167 593.5,393.5C 593.5,397.5 593.5,401.5 593.5,405.5C 593.054,408.01 593.72,410.01 595.5,411.5C 595.5,411.833 595.5,412.167 595.5,412.5C 594.5,412.5 593.5,412.5 592.5,412.5C 592.034,416.162 592.701,419.495 594.5,422.5C 593.833,423.167 593.167,423.833 592.5,424.5C 591.356,423.817 591.356,424.151 592.5,425.5C 592.672,426.492 592.338,427.158 591.5,427.5C 591.167,427.5 590.833,427.5 590.5,427.5C 592.026,409.542 592.859,391.542 593,373.5C 593.406,370.258 594.239,367.258 595.5,364.5 Z"/></g>
<g><path style="opacity:1" fill="#fbb6b6" d="M 732.5,394.5 C 732.666,402.84 732.5,411.173 732,419.5C 731.776,424.24 729.442,427.24 725,428.5C 719.055,453.006 715.221,477.839 713.5,503C 715.379,524.647 714.379,546.147 710.5,567.5C 702.356,594.104 693.856,620.771 685,647.5C 684.006,652.118 683.506,656.785 683.5,661.5C 679.882,659.443 676.048,657.777 672,656.5C 669.497,656.99 667.497,658.323 666,660.5C 664.623,653.924 664.123,647.257 664.5,640.5C 664.19,637.287 664.523,634.287 665.5,631.5C 666.117,631.389 666.617,631.056 667,630.5C 667.499,625.177 667.666,619.844 667.5,614.5C 667.5,614.167 667.5,613.833 667.5,613.5C 668.117,613.389 668.617,613.056 669,612.5C 669.499,607.177 669.666,601.844 669.5,596.5C 669.19,593.287 669.523,590.287 670.5,587.5C 671.29,586.391 671.79,585.058 672,583.5C 672.499,578.177 672.666,572.844 672.5,567.5C 674.255,560.077 674.921,552.411 674.5,544.5C 675.166,539.511 675.499,534.344 675.5,529C 675.684,521.272 675.017,513.772 673.5,506.5C 673.5,504.5 673.5,502.5 673.5,500.5C 673.5,471.5 673.5,442.5 673.5,413.5C 693.274,407.353 712.941,401.019 732.5,394.5 Z"/></g>
<g><path style="opacity:0.373" fill="#483535" d="M 579.5,385.5 C 579.638,390.414 578.972,395.081 577.5,399.5C 577.362,394.586 578.028,389.919 579.5,385.5 Z"/></g>
<g><path style="opacity:1" fill="#fcb7b7" d="M 649.5,416.5 C 650.609,417.29 651.942,417.79 653.5,418C 652.577,420.041 652.244,422.208 652.5,424.5C 651.739,428.784 650.405,432.784 648.5,436.5C 637.735,466.623 627.235,496.956 617,527.5C 616.073,530.863 616.573,533.863 618.5,536.5C 620.85,563.634 618.35,590.3 611,616.5C 610.18,623.014 610.347,629.347 611.5,635.5C 611.198,639.79 611.864,643.79 613.5,647.5C 613.66,649.199 613.494,650.866 613,652.5C 610.149,655.584 607.315,658.584 604.5,661.5C 599.394,660.78 595.394,658.28 592.5,654C 590.807,653.153 589.14,652.32 587.5,651.5C 587.257,631.063 585.423,610.73 582,590.5C 578.995,562.912 577.495,535.245 577.5,507.5C 579.911,494.355 581.911,481.022 583.5,467.5C 584.451,466.081 584.784,464.415 584.5,462.5C 596.434,460.566 604.434,453.9 608.5,442.5C 609.926,440.321 610.592,437.821 610.5,435C 610.664,432.456 609.997,430.29 608.5,428.5C 606.06,421.617 601.727,416.284 595.5,412.5C 595.5,412.167 595.5,411.833 595.5,411.5C 595.433,410.041 595.766,408.708 596.5,407.5C 597.265,407.077 598.098,406.743 599,406.5C 615.483,411.663 632.316,414.996 649.5,416.5 Z"/></g>
<g><path style="opacity:1" fill="#e77e00" d="M 575.5,419.5 C 566.74,423.685 563.24,430.685 565,440.5C 568.647,450.576 575.814,454.91 586.5,453.5C 587.492,453.672 588.158,453.338 588.5,452.5C 592.888,451.821 595.888,449.488 597.5,445.5C 601.686,440.577 602.353,435.244 599.5,429.5C 598.99,426.326 597.323,423.992 594.5,422.5C 592.701,419.495 592.034,416.162 592.5,412.5C 593.5,412.5 594.5,412.5 595.5,412.5C 601.727,416.284 606.06,421.617 608.5,428.5C 609.833,433.167 609.833,437.833 608.5,442.5C 604.434,453.9 596.434,460.566 584.5,462.5C 578.197,462.126 572.364,460.126 567,456.5C 553.308,468.032 539.808,479.698 526.5,491.5C 505.894,508.101 485.56,525.101 465.5,542.5C 461.346,539.343 458.013,535.51 455.5,531C 458.354,527.978 461.354,525.145 464.5,522.5C 462.025,518.858 459.358,515.358 456.5,512C 458.061,511.059 459.395,509.892 460.5,508.5C 458.586,503.975 455.753,502.975 452,505.5C 451.215,503.714 450.049,502.214 448.5,501C 451.427,498.618 454.261,496.118 457,493.5C 458.113,495.329 459.613,496.163 461.5,496C 463.351,494.316 465.018,492.483 466.5,490.5C 465.833,489.5 465.167,488.5 464.5,487.5C 466.167,486.167 467.833,484.833 469.5,483.5C 471.167,484.5 472.5,485.833 473.5,487.5C 469.536,491.479 470.369,494.479 476,496.5C 477.261,496.241 478.261,495.574 479,494.5C 482.1,498.356 485.433,502.023 489,505.5C 503.064,493.26 517.231,481.26 531.5,469.5C 532.167,469.5 532.5,469.167 532.5,468.5C 532.833,468.5 533.167,468.5 533.5,468.5C 541.189,461.48 549.189,454.813 557.5,448.5C 556.605,441.588 556.605,434.588 557.5,427.5C 560.967,418.997 567.133,413.331 576,410.5C 576.736,413.592 576.569,416.592 575.5,419.5 Z M 575.5,420.5 C 576.181,425.161 577.347,429.828 579,434.5C 582.859,438.753 586.026,438.42 588.5,433.5C 588.833,433.5 589.167,433.5 589.5,433.5C 589.5,434.833 589.5,436.167 589.5,437.5C 589.5,437.833 589.5,438.167 589.5,438.5C 587.882,442.575 586.882,446.908 586.5,451.5C 571.505,452.34 565.005,445.34 567,430.5C 568.978,426.362 571.811,423.029 575.5,420.5 Z"/></g>
<g><path style="opacity:0.502" fill="#2b376a" d="M 577.5,399.5 C 577.5,406.167 577.5,412.833 577.5,419.5C 576.833,419.5 576.167,419.5 575.5,419.5C 576.569,416.592 576.736,413.592 576,410.5C 567.133,413.331 560.967,418.997 557.5,427.5C 557.5,426.833 557.5,426.167 557.5,425.5C 560.748,416.591 567.082,411.257 576.5,409.5C 576.187,405.958 576.521,402.625 577.5,399.5 Z"/></g>
<g><path style="opacity:0.133" fill="#1d1617" d="M 673.5,413.5 C 673.5,442.5 673.5,471.5 673.5,500.5C 672.668,472.003 672.168,443.336 672,414.5C 666.354,416.413 660.52,417.413 654.5,417.5C 654.5,417.167 654.5,416.833 654.5,416.5C 660.888,415.824 667.222,414.824 673.5,413.5 Z"/></g>
<g><path style="opacity:1" fill="#e77f00" d="M 362.5,416.5 C 372.049,415.053 377.715,419.053 379.5,428.5C 376.827,439.669 370.161,443.169 359.5,439C 354.789,434.86 353.289,429.694 355,423.5C 356.742,420.254 359.242,417.921 362.5,416.5 Z"/></g>
<g><path style="opacity:1" fill="#8e696a" d="M 649.5,416.5 C 651.167,416.5 652.833,416.5 654.5,416.5C 654.5,416.833 654.5,417.167 654.5,417.5C 654.59,420.152 653.924,422.485 652.5,424.5C 652.244,422.208 652.577,420.041 653.5,418C 651.942,417.79 650.609,417.29 649.5,416.5 Z"/></g>
<g><path style="opacity:1" fill="#f1b1b7" d="M 594.5,422.5 C 597.323,423.992 598.99,426.326 599.5,429.5C 599.931,435.023 599.264,440.356 597.5,445.5C 595.888,449.488 592.888,451.821 588.5,452.5C 587.957,452.44 587.624,452.107 587.5,451.5C 589.065,447.313 589.732,442.98 589.5,438.5C 589.5,438.167 589.5,437.833 589.5,437.5C 591.223,435.22 591.889,432.553 591.5,429.5C 591.5,428.833 591.5,428.167 591.5,427.5C 592.338,427.158 592.672,426.492 592.5,425.5C 592.5,425.167 592.5,424.833 592.5,424.5C 593.167,423.833 593.833,423.167 594.5,422.5 Z"/></g>
<g><path style="opacity:1" fill="#adacb6" d="M 319.5,422.5 C 320.5,422.5 321.5,422.5 322.5,422.5C 322.5,424.833 322.5,427.167 322.5,429.5C 321.5,429.5 320.5,429.5 319.5,429.5C 319.5,427.167 319.5,424.833 319.5,422.5 Z"/></g>
<g><path style="opacity:1" fill="#9b93d1" d="M 599.5,429.5 C 602.353,435.244 601.686,440.577 597.5,445.5C 599.264,440.356 599.931,435.023 599.5,429.5 Z"/></g>
<g><path style="opacity:1" fill="#b19bcc" d="M 608.5,428.5 C 609.997,430.29 610.664,432.456 610.5,435C 610.592,437.821 609.926,440.321 608.5,442.5C 609.833,437.833 609.833,433.167 608.5,428.5 Z"/></g>
<g><path style="opacity:0.071" fill="#2c2122" d="M 575.5,420.5 C 575.5,420.167 575.5,419.833 575.5,419.5C 576.167,419.5 576.833,419.5 577.5,419.5C 577.375,424.333 578.208,429 580,433.5C 582.822,437.395 585.655,437.395 588.5,433.5C 586.026,438.42 582.859,438.753 579,434.5C 577.347,429.828 576.181,425.161 575.5,420.5 Z"/></g>
<g><path style="opacity:0.376" fill="#503a3a" d="M 590.5,428.5 C 590.5,429.167 590.833,429.5 591.5,429.5C 591.889,432.553 591.223,435.22 589.5,437.5C 589.5,436.167 589.5,434.833 589.5,433.5C 589.167,433.5 588.833,433.5 588.5,433.5C 588.12,431.302 588.787,429.635 590.5,428.5 Z"/></g>
<g><path style="opacity:0.396" fill="#112149" d="M 575.5,419.5 C 575.5,419.833 575.5,420.167 575.5,420.5C 571.811,423.029 568.978,426.362 567,430.5C 565.005,445.34 571.505,452.34 586.5,451.5C 586.5,452.167 586.5,452.833 586.5,453.5C 575.814,454.91 568.647,450.576 565,440.5C 563.24,430.685 566.74,423.685 575.5,419.5 Z"/></g>
<g><path style="opacity:0.906" fill="#7e5d62" d="M 589.5,438.5 C 589.732,442.98 589.065,447.313 587.5,451.5C 587.624,452.107 587.957,452.44 588.5,452.5C 588.158,453.338 587.492,453.672 586.5,453.5C 586.5,452.833 586.5,452.167 586.5,451.5C 586.882,446.908 587.882,442.575 589.5,438.5 Z"/></g>
<g><path style="opacity:1" fill="#c0bfc6" d="M 316.5,442.5 C 317.586,442.62 318.253,443.287 318.5,444.5C 317.191,448.4 316.524,452.4 316.5,456.5C 315.5,456.5 314.5,456.5 313.5,456.5C 314.497,451.839 315.497,447.173 316.5,442.5 Z"/></g>
<g><path style="opacity:0.118" fill="#0f1e42" d="M 557.5,425.5 C 557.5,426.167 557.5,426.833 557.5,427.5C 556.605,434.588 556.605,441.588 557.5,448.5C 549.189,454.813 541.189,461.48 533.5,468.5C 533.5,467.833 533.5,467.167 533.5,466.5C 540.809,460.031 548.309,453.698 556,447.5C 556.033,443.647 555.533,439.814 554.5,436C 554.818,432.168 555.818,428.668 557.5,425.5 Z"/></g>
<g><path style="opacity:0.259" fill="#182c5f" d="M 584.5,462.5 C 584.784,464.415 584.451,466.081 583.5,467.5C 583.5,466.167 583.5,464.833 583.5,463.5C 577.548,463.278 572.048,461.611 567,458.5C 555.334,468.002 543.834,477.668 532.5,487.5C 531.833,487.5 531.5,487.833 531.5,488.5C 530.833,488.5 530.5,488.833 530.5,489.5C 529.395,490.6 528.062,491.267 526.5,491.5C 539.808,479.698 553.308,468.032 567,456.5C 572.364,460.126 578.197,462.126 584.5,462.5 Z"/></g>
<g><path style="opacity:1" fill="#ececed" d="M 402.5,463.5 C 416.805,462.624 421.972,468.958 418,482.5C 416.833,485 415,486.833 412.5,488C 399.438,489.605 393.605,483.772 395,470.5C 397.396,467.933 399.896,465.6 402.5,463.5 Z"/></g>
<g><path style="opacity:0.686" fill="#4f3a3a" d="M 583.5,467.5 C 581.911,481.022 579.911,494.355 577.5,507.5C 578.305,493.859 580.305,480.526 583.5,467.5 Z"/></g>
<g><path style="opacity:1" fill="#c1c1c7" d="M 308.5,469.5 C 309.376,469.369 310.043,469.702 310.5,470.5C 308.689,474.322 307.355,478.322 306.5,482.5C 305.5,482.5 304.5,482.5 303.5,482.5C 304.709,478.001 306.376,473.668 308.5,469.5 Z"/></g>
<g><path style="opacity:0.082" fill="#040406" d="M 532.5,487.5 C 532.171,549.571 532.504,611.571 533.5,673.5C 531.504,612.176 530.837,550.509 531.5,488.5C 531.5,487.833 531.833,487.5 532.5,487.5 Z"/></g>
<g><path style="opacity:1" fill="#e77f00" d="M 375.5,495.5 C 389.377,495.19 394.211,501.524 390,514.5C 381.955,522.496 374.622,521.829 368,512.5C 365.66,504.525 368.16,498.858 375.5,495.5 Z"/></g>
<g><path style="opacity:1" fill="#c5c5cb" d="M 296.5,494.5 C 298.225,494.843 298.725,495.843 298,497.5C 296.311,500.891 294.144,503.891 291.5,506.5C 290.417,505.635 290.251,504.635 291,503.5C 293.347,500.806 295.18,497.806 296.5,494.5 Z"/></g>
<g><path style="opacity:0.067" fill="#2d2222" d="M 648.5,436.5 C 638.876,468.204 628.543,499.704 617.5,531C 618.233,532.766 618.567,534.599 618.5,536.5C 616.573,533.863 616.073,530.863 617,527.5C 627.235,496.956 637.735,466.623 648.5,436.5 Z"/></g>
<g><path style="opacity:0.557" fill="#191821" d="M 142.5,495.5 C 134.568,519.291 126.901,542.958 119.5,566.5C 125.39,542.165 133.057,518.498 142.5,495.5 Z"/></g>
<g><path style="opacity:1" fill="#ccccd1" d="M 281.5,517.5 C 283.028,517.517 283.528,518.184 283,519.5C 280.688,522.646 278.188,525.646 275.5,528.5C 274.417,527.635 274.251,526.635 275,525.5C 277.001,522.669 279.167,520.003 281.5,517.5 Z"/></g>
<g><path style="opacity:0.118" fill="#2f2323" d="M 673.5,506.5 C 675.017,513.772 675.684,521.272 675.5,529C 675.499,534.344 675.166,539.511 674.5,544.5C 674.655,531.815 674.322,519.149 673.5,506.5 Z"/></g>
<g><path style="opacity:1" fill="#e77f00" d="M 410.5,521.5 C 423.907,522.978 428.073,529.978 423,542.5C 415.98,548.125 409.314,547.792 403,541.5C 398.817,532.19 401.317,525.523 410.5,521.5 Z"/></g>
<g><path style="opacity:0.331" fill="#4d3838" d="M 577.5,507.5 C 577.495,535.245 578.995,562.912 582,590.5C 585.423,610.73 587.257,631.063 587.5,651.5C 586.833,651.5 586.5,651.167 586.5,650.5C 586.498,641.142 585.998,631.809 585,622.5C 581.455,597.927 578.788,573.261 577,548.5C 576.173,534.66 576.339,520.994 577.5,507.5 Z"/></g>
<g><path style="opacity:1" fill="#cecdd2" d="M 263.5,537.5 C 264.289,537.783 264.956,538.283 265.5,539C 262.318,542.349 258.985,545.516 255.5,548.5C 254.167,547.5 254.167,546.5 255.5,545.5C 258.521,543.146 261.188,540.479 263.5,537.5 Z"/></g>
<g><path style="opacity:0.137" fill="#111016" d="M 138.5,596.5 C 140.187,563.375 145.021,530.708 153,498.5C 160.763,468.548 170.097,439.215 181,410.5C 177.392,418.052 173.559,425.386 169.5,432.5C 173.694,421.111 179.194,410.444 186,400.5C 186.167,401.167 186.333,401.833 186.5,402.5C 160.427,464.789 144.427,529.456 138.5,596.5 Z"/></g>
<g><path style="opacity:0.082" fill="#1d1616" d="M 732.5,394.5 C 732.833,394.5 733.167,394.5 733.5,394.5C 735.391,405.413 734.558,416.08 731,426.5C 728.86,427.728 727.193,429.395 726,431.5C 720.704,455.443 716.87,479.61 714.5,504C 716.641,527.182 715.308,550.015 710.5,572.5C 710.5,570.833 710.5,569.167 710.5,567.5C 714.379,546.147 715.379,524.647 713.5,503C 715.221,477.839 719.055,453.006 725,428.5C 729.442,427.24 731.776,424.24 732,419.5C 732.5,411.173 732.666,402.84 732.5,394.5 Z"/></g>
<g><path style="opacity:0.714" fill="#634848" d="M 674.5,544.5 C 674.921,552.411 674.255,560.077 672.5,567.5C 672.571,559.635 673.238,551.969 674.5,544.5 Z"/></g>
<g><path style="opacity:1" fill="#c2c2c8" d="M 242.5,555.5 C 244.028,555.517 244.528,556.184 244,557.5C 240.77,560.531 237.27,563.197 233.5,565.5C 232.167,564.5 232.167,563.5 233.5,562.5C 236.829,560.494 239.829,558.161 242.5,555.5 Z"/></g>
<g><path style="opacity:1" fill="#ececec" d="M 363.5,563.5 C 371.676,561.827 377.843,564.494 382,571.5C 382.954,584.213 377.121,589.713 364.5,588C 354.302,580.29 353.969,572.123 363.5,563.5 Z"/></g>
<g><path style="opacity:1" fill="#c1c1c8" d="M 213.5,576.5 C 213.5,575.5 213.5,574.5 213.5,573.5C 215.928,572.788 218.261,571.788 220.5,570.5C 221.386,571.325 221.719,572.325 221.5,573.5C 218.86,574.448 216.193,575.448 213.5,576.5 Z"/></g>
<g><path style="opacity:0.114" fill="#291f1f" d="M 618.5,536.5 C 622.109,564.114 619.942,591.447 612,618.5C 611.501,624.157 611.334,629.824 611.5,635.5C 610.347,629.347 610.18,623.014 611,616.5C 618.35,590.3 620.85,563.634 618.5,536.5 Z"/></g>
<g><path style="opacity:0.102" fill="#463333" d="M 710.5,567.5 C 710.5,569.167 710.5,570.833 710.5,572.5C 703.513,595.963 696.013,619.296 688,642.5C 685.97,648.678 684.804,655.012 684.5,661.5C 684.167,661.5 683.833,661.5 683.5,661.5C 683.506,656.785 684.006,652.118 685,647.5C 693.856,620.771 702.356,594.104 710.5,567.5 Z"/></g>
<g><path style="opacity:0.804" fill="#6b4e4e" d="M 672.5,567.5 C 672.666,572.844 672.499,578.177 672,583.5C 671.79,585.058 671.29,586.391 670.5,587.5C 670.521,580.626 671.187,573.959 672.5,567.5 Z"/></g>
<g><path style="opacity:1" fill="#ccccd1" d="M 378.5,445.5 C 381.365,448.19 383.531,451.523 385,455.5C 397.756,487.829 401.09,521.163 395,555.5C 390.612,571.665 385.612,587.665 380,603.5C 377.189,614.408 374.856,625.408 373,636.5C 372.333,647.833 372.333,659.167 373,670.5C 373.76,679.206 375.926,687.539 379.5,695.5C 377.675,696.571 376.508,695.904 376,693.5C 370.444,677.275 368.444,660.608 370,643.5C 371.258,632.024 373.258,620.691 376,609.5C 381.574,593.684 386.574,577.684 391,561.5C 399.903,521.34 395.736,482.673 378.5,445.5 Z"/></g>
<g><path style="opacity:0.127" fill="#0a090e" d="M 117.5,574.5 C 113.72,593.507 110.72,612.507 108.5,631.5C 109.247,612.022 112.247,593.022 117.5,574.5 Z"/></g>
<g><path style="opacity:0.918" fill="#775656" d="M 669.5,596.5 C 669.666,601.844 669.499,607.177 669,612.5C 668.617,613.056 668.117,613.389 667.5,613.5C 667.596,607.627 668.263,601.96 669.5,596.5 Z"/></g>
<g><path style="opacity:0.141" fill="#100f15" d="M 849.5,599.5 C 845.836,603.332 842.336,607.332 839,611.5C 836.392,616.397 833.559,621.063 830.5,625.5C 833.922,614.636 840.255,605.969 849.5,599.5 Z"/></g>
<g><path style="opacity:0.018" fill="#0b0b10" d="M 176.5,615.5 C 161.996,622.753 149.329,632.419 138.5,644.5C 140.087,641.732 141.92,639.065 144,636.5C 153.319,627.095 164.152,620.095 176.5,615.5 Z"/></g>
<g><path style="opacity:0.238" fill="#131219" d="M 138.5,596.5 C 137.49,612.664 137.49,628.664 138.5,644.5C 138.217,645.289 137.717,645.956 137,646.5C 136.833,640 136.667,633.5 136.5,627C 136.354,616.626 137.021,606.459 138.5,596.5 Z"/></g>
<g><path style="opacity:0.933" fill="#785757" d="M 667.5,614.5 C 667.666,619.844 667.499,625.177 667,630.5C 666.617,631.056 666.117,631.389 665.5,631.5C 665.596,625.627 666.263,619.96 667.5,614.5 Z"/></g>
<g><path style="opacity:0.008" fill="#060609" d="M 187.5,624.5 C 179.833,632.833 171.833,640.833 163.5,648.5C 163.369,647.761 163.536,647.094 164,646.5C 171.422,638.573 179.255,631.24 187.5,624.5 Z"/></g>
<g><path style="opacity:0.165" fill="#271d1d" d="M 611.5,635.5 C 612.617,639.295 613.283,643.295 613.5,647.5C 611.864,643.79 611.198,639.79 611.5,635.5 Z"/></g>
<g><path style="opacity:0.117" fill="#0b0a0f" d="M 108.5,631.5 C 108.753,649.854 109.42,668.188 110.5,686.5C 108.167,686.5 105.833,686.5 103.5,686.5C 105.265,685.539 107.265,685.205 109.5,685.5C 108.596,672.516 107.93,659.516 107.5,646.5C 107.501,641.322 107.834,636.322 108.5,631.5 Z"/></g>
<g><path style="opacity:1" fill="#e7e7e9" d="M 409.5,642.5 C 410.239,642.369 410.906,642.536 411.5,643C 402.813,660.719 394.313,678.552 386,696.5C 382.602,686.772 382.935,677.106 387,667.5C 392.575,657.426 400.075,649.093 409.5,642.5 Z"/></g>
<g><path style="opacity:1" fill="#2d2c3e" d="M 531.5,488.5 C 530.837,550.509 531.504,612.176 533.5,673.5C 545.862,673.908 558.195,673.908 570.5,673.5C 573.43,665.133 577.764,657.633 583.5,651C 584.448,650.517 585.448,650.351 586.5,650.5C 586.5,651.167 586.833,651.5 587.5,651.5C 589.14,652.32 590.807,653.153 592.5,654C 595.394,658.28 599.394,660.78 604.5,661.5C 607.315,658.584 610.149,655.584 613,652.5C 613.494,650.866 613.66,649.199 613.5,647.5C 614.404,648.209 614.737,649.209 614.5,650.5C 617.48,650.241 619.313,651.574 620,654.5C 621.824,661.782 623.324,669.115 624.5,676.5C 630.867,677.981 637.2,678.981 643.5,679.5C 634.765,679.124 626.098,679.624 617.5,681C 611.738,684.39 606.072,688.056 600.5,692C 596.099,696.674 591.599,701.174 587,705.5C 580.21,708.449 573.043,709.783 565.5,709.5C 557.763,711.568 553.429,708.734 552.5,701C 557.702,692.456 563.702,684.456 570.5,677C 557.205,675.525 543.872,674.691 530.5,674.5C 530.5,612.833 530.5,551.167 530.5,489.5C 530.5,488.833 530.833,488.5 531.5,488.5 Z"/></g>
<g><path style="opacity:1" fill="#2d2c3e" d="M 664.5,640.5 C 664.123,647.257 664.623,653.924 666,660.5C 667.497,658.323 669.497,656.99 672,656.5C 676.048,657.777 679.882,659.443 683.5,661.5C 683.833,661.5 684.167,661.5 684.5,661.5C 687.618,669.278 691.951,676.278 697.5,682.5C 705.305,683.56 712.972,684.56 720.5,685.5C 712.818,685.236 705.151,685.069 697.5,685C 700.164,687.669 701.998,690.836 703,694.5C 704.753,700.094 703.253,704.427 698.5,707.5C 693.517,706.411 688.35,706.411 683,707.5C 679.924,706.712 676.758,706.212 673.5,706C 672.069,705.535 670.903,704.701 670,703.5C 669.229,700.238 667.896,697.238 666,694.5C 662.895,693.486 660.395,691.652 658.5,689C 659.322,686.566 659.656,684.066 659.5,681.5C 654.924,681.562 650.591,680.895 646.5,679.5C 650.437,679.207 654.27,679.54 658,680.5C 658.499,674.509 658.666,668.509 658.5,662.5C 660.144,662.714 661.644,662.38 663,661.5C 663.171,654.321 663.671,647.321 664.5,640.5 Z"/></g>
<g><path style="opacity:1" fill="#e7e7e9" d="M 319.5,664.5 C 337.676,662.766 352.51,669.099 364,683.5C 367.105,687.361 368.772,691.694 369,696.5C 352.557,685.698 336.057,675.032 319.5,664.5 Z"/></g>
<g><path style="opacity:0.033" fill="#060508" d="M 830.5,625.5 C 822.365,645.909 816.032,666.909 811.5,688.5C 809.625,687.591 808.292,686.257 807.5,684.5C 808.721,685.028 809.887,685.695 811,686.5C 814.59,665.105 821.09,644.772 830.5,625.5 Z"/></g>
<g><path style="opacity:0.4" fill="#1d1c27" d="M 723.5,685.5 C 744.034,686.92 764.367,688.92 784.5,691.5C 767.825,690.533 751.159,689.366 734.5,688C 730.72,687.082 727.054,686.249 723.5,685.5 Z"/></g>
<g><path style="opacity:0.039" fill="#060609" d="M -0.5,702.5 C 0.166667,702.5 0.833333,702.5 1.5,702.5C 323.16,708.256 644.827,713.59 966.5,718.5C 935.167,718.5 903.833,718.5 872.5,718.5C 581.666,713.603 290.666,708.937 -0.5,704.5C -0.5,703.833 -0.5,703.167 -0.5,702.5 Z"/></g>
<g><path style="opacity:0.016" fill="#0a090e" d="M 906.5,705.5 C 937.585,708.427 968.585,712.094 999.5,716.5C 999.5,717.167 999.5,717.833 999.5,718.5C 997.5,718.5 995.5,718.5 993.5,718.5C 964.556,713.778 935.556,709.444 906.5,705.5 Z"/></g>
</svg>
