<svg xmlns="http://www.w3.org/2000/svg" version="1.1" xmlns:xlink="http://www.w3.org/1999/xlink" xmlns:svgjs="http://svgjs.dev/svgjs" width="2000" height="464" viewBox="0 0 2000 464"><g transform="matrix(1,0,0,1,-1.212086630094177,-0.062058413603324425)"><svg viewBox="0 0 396 92" data-background-color="#ff851b" preserveAspectRatio="xMidYMid meet" height="464" width="2000" xmlns="http://www.w3.org/2000/svg" xmlns:xlink="http://www.w3.org/1999/xlink"><g id="tight-bounds" transform="matrix(1,0,0,1,0.2399931527586432,0.012304973377126771)"><svg viewBox="0 0 395.52 91.9753841377719" height="91.9753841377719" width="395.52"><g><svg viewBox="0 0 610.5750896320408 141.9849272195122" height="91.9753841377719" width="395.52"><g><rect width="6.176723234491317" height="82.19098536585365" x="192.70893384652513" y="29.896970926829276" fill="#ffffff" opacity="1" stroke-width="0" stroke="transparent" fill-opacity="1" class="rect-o-0" data-fill-palette-color="primary" rx="1%" id="o-0" data-palette-color="#ffffff"></rect></g><g transform="matrix(1,0,0,1,215.05508963204082,36.74621970731708)"><svg viewBox="0 0 395.5199999999999 68.49248780487804" height="68.49248780487804" width="395.5199999999999"><g id="textblocktransform"><svg viewBox="0 0 395.5199999999999 68.49248780487804" height="68.49248780487804" width="395.5199999999999" id="textblock"><g><svg viewBox="0 0 395.5199999999999 68.49248780487804" height="68.49248780487804" width="395.5199999999999"><g transform="matrix(1,0,0,1,0,0)"><svg width="395.5199999999999" viewBox="3.5999999046325684 -31.700000762939453 184.489990234375 31.950000762939453" height="68.49248780487804" data-palette-color="#ffffff"><path d="M24.5-28.1Q24.5-29.55 25.18-30.63 25.85-31.7 27.2-31.7L27.2-31.7Q28.35-31.7 29.25-31.25 30.15-30.8 30.15-29.75L30.15-29.75Q30.15-27.7 29.95-24L29.95-24Q29.75-20.4 29.75-18.65L29.75-18.65Q29.75-15.9 29.95-11.3L29.95-11.3Q30.15-6.9 30.15-4.85L30.15-4.85Q30.15-3.2 30.1-2.4L30.1-2.4Q30.1-1.6 29.23-0.83 28.35-0.05 26.55-0.05L26.55-0.05Q25.6-0.05 24.93-0.38 24.25-0.7 24-1.1L24-1.1Q21.65-3.95 17.15-10.8L17.15-10.8Q12.1-18.45 8.9-22.5L8.9-22.5Q9.3-18.9 9.3-13.7L9.3-13.7Q9.3-11.4 9.22-7.73 9.15-4.05 9-2.9L9-2.9Q8.8-1.45 8.13-0.68 7.45 0.1 6 0.1L6 0.1Q4.9 0.1 4.38-0.53 3.85-1.15 3.75-2.7L3.75-2.7Q3.7-4.75 4-8.85L4-8.85Q4.05-9.5 4.15-11.1 4.25-12.7 4.25-13.95L4.25-13.95Q4.25-17.4 3.9-21.85L3.9-21.85Q3.6-26.75 3.6-29.1L3.6-29.1Q3.6-30.3 4.48-30.95 5.35-31.6 6.5-31.6L6.5-31.6Q7.5-31.6 8.6-31.1L8.6-31.1Q12.9-25.7 20.25-15L20.25-15 24.95-7.8Q25-8.6 25-10.05L25-10.05Q25-12.6 24.9-15.55 24.8-18.5 24.75-19.55L24.75-19.55Q24.5-24.4 24.5-28.1L24.5-28.1ZM36-10.6Q36-12.5 36.7-14.43 37.4-16.35 38.55-17.95L38.55-17.95Q39.7-19.55 42.2-20.58 44.7-21.6 46.65-21.6L46.65-21.6Q48.65-21.6 50.72-21.05 52.8-20.5 53.6-19.35L53.6-19.35Q55.45-16.75 55.45-14.25L55.45-14.25Q55.45-12.9 54.87-11.95 54.3-11 53.25-9.9L53.25-9.9Q52.4-9 50.57-8.7 48.75-8.4 46.95-8.4L46.95-8.4Q45.8-8.4 44.15-8.63 42.5-8.85 40.95-9.2L40.95-9.2Q41.05-8.2 41.45-7.25 41.85-6.3 42.4-5.8L42.4-5.8Q43.4-4.85 44.47-4.6 45.55-4.35 47.25-4.35L47.25-4.35Q49.05-4.35 50.6-4.95L50.6-4.95Q51.85-5.4 52.65-5.4L52.65-5.4Q53.6-5.4 54.1-4.83 54.6-4.25 54.6-3.35L54.6-3.35Q54.6-2.1 53.15-1.3 51.7-0.5 49.82-0.13 47.95 0.25 46.8 0.25L46.8 0.25Q44.45 0.25 42.25-0.6 40.05-1.45 38.6-3L38.6-3Q37.4-4.4 36.7-6.38 36-8.35 36-10.6L36-10.6ZM46.9-17.35Q45.8-17.35 44.7-16.93 43.6-16.5 42.9-15.75L42.9-15.75Q42-14.8 41.67-14.23 41.35-13.65 41.25-12.65L41.25-12.65Q42.5-12.25 46.45-12.25L46.45-12.25Q48.6-12.25 49.77-12.9 50.95-13.55 50.95-14.6L50.95-14.6Q50.95-15.65 49.65-16.5 48.35-17.35 46.9-17.35L46.9-17.35ZM59.3-16.85Q58.9-16.85 58.57-17.18 58.25-17.5 58.25-17.95L58.25-17.95Q58.25-19.1 59.25-20.1L59.25-20.1Q59.55-20.25 60.45-20.6 61.35-20.95 62.05-20.95L62.05-20.95Q63.95-20.95 65.15-19.93 66.34-18.9 66.34-17L66.34-17Q66.34-16.45 66.15-14.65L66.15-14.65Q65.95-12.55 65.95-11.4L65.95-11.4Q65.95-7.9 66.9-5.75L66.9-5.75Q67.25-5.05 68-4.65 68.75-4.25 69.34-4.25L69.34-4.25Q70.8-4.25 71.7-4.75 72.59-5.25 73.65-6.35L73.65-6.35Q74.7-7.45 75.02-8.85 75.34-10.25 75.5-12.7L75.5-12.7Q75.59-14.3 75.7-15.05L75.7-15.05Q75.95-17.45 75.95-19.15L75.95-19.15Q75.95-20.25 76.55-20.98 77.15-21.7 78.2-21.7L78.2-21.7Q78.8-21.7 79.57-21.33 80.34-20.95 80.59-20.45L80.59-20.45Q80.9-19.95 80.9-18.8L80.9-18.8Q80.9-18.2 80.75-17.65L80.75-17.65Q80.4-16.4 80.4-14.65L80.4-14.65 80.45-12.05Q80.45-8.5 80.95-6.8L80.95-6.8Q81.2-6 81.65-5.18 82.09-4.35 82.5-3.8L82.5-3.8Q83.5-2.7 83.8-2.27 84.09-1.85 84.09-1.45L84.09-1.45Q84.09-0.85 83.52-0.33 82.95 0.2 82.3 0.2L82.3 0.2Q80.45 0.2 79.09-1.05 77.75-2.3 77.09-4.3L77.09-4.3Q75.4-2.35 73.95-1.15L73.95-1.15Q72.95-0.45 71.5-0.13 70.05 0.2 68.59 0.2L68.59 0.2Q66.65 0.2 64.65-1.4 62.65-3 61.95-5.1L61.95-5.1Q61.9-5.2 61.67-5.9 61.45-6.6 61.45-8L61.45-8Q61.45-9.85 61.65-12.65L61.65-12.65Q61.8-14.45 61.8-15.95L61.8-15.95Q61.8-16.4 61.47-16.7 61.15-17 60.75-17L60.75-17Q60.45-17 60.07-16.93 59.7-16.85 59.3-16.85L59.3-16.85ZM99.49-12.85Q99.64-13.25 100.57-15.75 101.49-18.25 102.29-19.55L102.29-19.55Q103.59-21.6 104.59-21.6L104.59-21.6Q105.99-21.6 106.74-21.08 107.49-20.55 107.49-19.6L107.49-19.6Q107.49-19.15 107.12-18.35 106.74-17.55 106.69-17.4L106.69-17.4Q104.69-13 103.09-7.95L103.09-7.95 102.04-4.05Q101.44-2.15 99.99-0.98 98.54 0.2 96.59 0.2L96.59 0.2Q94.84 0.2 93.34-1.4L93.34-1.4Q92.44-2.8 91.47-4.95 90.49-7.1 89.79-9.15L89.79-9.15 88.04-14.4Q87.49-15.95 87.17-17.05 86.84-18.15 86.84-19.05L86.84-19.05Q86.79-20.1 87.44-20.75 88.09-21.4 89.24-21.4L89.24-21.4Q90.54-21.4 91.09-20.88 91.64-20.35 92.09-19.25L92.09-19.25Q92.29-18.1 93.19-14.55L93.19-14.55 93.54-13.15Q93.99-11.45 94.69-9.7 95.39-7.95 96.09-6.35L96.09-6.35Q95.99-6.6 96.79-4.7L96.79-4.7Q97.29-6.15 97.94-8.25L97.94-8.25 99.49-12.85ZM133.79-2.4Q133.79-1.3 132.62-0.55 131.44 0.2 130.44 0.2L130.44 0.2Q128.54 0.2 127.42-0.28 126.29-0.75 125.34-2.05L125.34-2.05Q124.04-0.9 121.79-0.33 119.54 0.25 117.64 0.25L117.64 0.25Q114.54 0.25 112.54-1.43 110.54-3.1 110.54-6.35L110.54-6.35Q110.54-7.75 111.29-8.93 112.04-10.1 113.34-11L113.34-11Q114.79-11.95 116.64-12.48 118.49-13 120.49-13L120.49-13Q121.54-13 122.99-12.6 124.44-12.2 125.24-11.75L125.24-11.75 125.24-12.55Q125.24-15.25 123.94-16.28 122.64-17.3 119.74-17.3L119.74-17.3Q118.89-17.3 118.07-16.95 117.24-16.6 116.19-16L116.19-16Q114.79-15.25 113.54-15.25L113.54-15.25Q113.09-15.25 112.69-15.88 112.29-16.5 112.29-17L112.29-17Q112.29-18.45 113.67-19.5 115.04-20.55 116.94-21.08 118.84-21.6 120.34-21.6L120.34-21.6Q121.84-21.6 123.79-21.03 125.74-20.45 126.99-19.45L126.99-19.45Q128.49-18.15 129.32-16.43 130.14-14.7 130.14-12.65L130.14-12.65Q130.14-12 130.04-10.7L130.04-10.7Q129.94-9.3 129.94-8.3L129.94-8.3Q129.94-7.85 129.84-6.95L129.84-6.95Q129.74-5.85 129.74-5.2L129.74-5.2Q129.74-4.6 130.19-4.17 130.64-3.75 131.24-3.75L131.24-3.75 132.64-3.8Q133.19-3.8 133.49-3.4 133.79-3 133.79-2.4L133.79-2.4ZM117.69-3.7Q119.84-3.7 121.29-4.15 122.74-4.6 124.79-5.8L124.79-5.8Q124.99-6.65 125.04-8.05L125.04-8.05Q122.29-9.35 120.49-9.35L120.49-9.35Q118.44-9.35 116.84-8.6 115.24-7.85 115.24-5.95L115.24-5.95Q115.24-5 116.04-4.35 116.84-3.7 117.69-3.7L117.69-3.7ZM159.89-3.85Q160.14-3.75 160.69-3.6 161.24-3.45 161.49-3.3 161.74-3.15 161.74-2.85L161.74-2.85Q161.79-1.65 160.86-0.88 159.94-0.1 158.69-0.1L158.69-0.1Q156.74-0.1 155.64-1.15 154.54-2.2 154.04-4.35L154.04-4.35Q153.84-5.2 153.84-6.7L153.84-6.7Q153.84-7.55 153.94-9.45L153.94-9.45Q154.04-11.45 154.04-12.65L154.04-12.65Q154.04-14.4 153.06-15.73 152.09-17.05 150.34-17.05L150.34-17.05Q149.29-17.05 148.14-16.43 146.99-15.8 146.54-14.9L146.54-14.9Q145.79-13.45 145.49-11.75L145.49-11.75Q144.94-8.75 144.94-5.5L144.94-5.5Q144.94-3.95 144.99-3.1L144.99-3.1Q144.99-2.9 145.01-2.33 145.04-1.75 144.91-1.28 144.79-0.8 144.49-0.4L144.49-0.4Q144.24-0.15 143.71 0.03 143.19 0.2 142.74 0.2L142.74 0.2Q142.04 0.2 140.99-0.4 139.94-1 139.79-1.75L139.79-1.75 139.74-2.6Q139.74-3.05 139.84-3.65L139.84-3.65Q140.44-7.15 140.44-9.75L140.44-9.75Q140.44-10.9 140.39-11.55L140.39-11.55 140.34-13.9Q140.34-15.1 139.74-16.23 139.14-17.35 138.34-17.35L138.34-17.35Q138.09-17.35 137.64-17.18 137.19-17 136.89-17L136.89-17Q136.39-17 135.81-17.5 135.24-18 135.24-18.55L135.24-18.55Q135.24-19.6 135.94-20.25L135.94-20.25Q136.69-20.85 137.41-21.2 138.14-21.55 139.09-21.55L139.09-21.55Q139.89-21.55 140.39-21.4 140.89-21.25 141.74-20.75L141.74-20.75Q142.19-20.5 142.79-19.65 143.39-18.8 143.79-17.25L143.79-17.25Q145.09-19.65 147.01-20.63 148.94-21.6 151.94-21.6L151.94-21.6Q153.09-21.6 154.41-20.85 155.74-20.1 156.69-19.1L156.69-19.1Q157.59-18 158.19-16.38 158.79-14.75 158.79-13.45L158.79-13.45Q158.79-12.7 158.69-11L158.69-11Q158.54-9.65 158.54-8.15L158.54-8.15Q158.54-4.65 159.89-3.85L159.89-3.85ZM188.09-2.4Q188.09-1.3 186.91-0.55 185.74 0.2 184.74 0.2L184.74 0.2Q182.84 0.2 181.71-0.28 180.59-0.75 179.64-2.05L179.64-2.05Q178.34-0.9 176.09-0.33 173.84 0.25 171.94 0.25L171.94 0.25Q168.84 0.25 166.84-1.43 164.84-3.1 164.84-6.35L164.84-6.35Q164.84-7.75 165.59-8.93 166.34-10.1 167.64-11L167.64-11Q169.09-11.95 170.94-12.48 172.79-13 174.79-13L174.79-13Q175.84-13 177.29-12.6 178.74-12.2 179.54-11.75L179.54-11.75 179.54-12.55Q179.54-15.25 178.24-16.28 176.94-17.3 174.04-17.3L174.04-17.3Q173.19-17.3 172.36-16.95 171.54-16.6 170.49-16L170.49-16Q169.09-15.25 167.84-15.25L167.84-15.25Q167.39-15.25 166.99-15.88 166.59-16.5 166.59-17L166.59-17Q166.59-18.45 167.96-19.5 169.34-20.55 171.24-21.08 173.14-21.6 174.64-21.6L174.64-21.6Q176.14-21.6 178.09-21.03 180.04-20.45 181.29-19.45L181.29-19.45Q182.79-18.15 183.61-16.43 184.44-14.7 184.44-12.65L184.44-12.65Q184.44-12 184.34-10.7L184.34-10.7Q184.24-9.3 184.24-8.3L184.24-8.3Q184.24-7.85 184.14-6.95L184.14-6.95Q184.04-5.85 184.04-5.2L184.04-5.2Q184.04-4.6 184.49-4.17 184.94-3.75 185.54-3.75L185.54-3.75 186.94-3.8Q187.49-3.8 187.79-3.4 188.09-3 188.09-2.4L188.09-2.4ZM171.99-3.7Q174.14-3.7 175.59-4.15 177.04-4.6 179.09-5.8L179.09-5.8Q179.29-6.65 179.34-8.05L179.34-8.05Q176.59-9.35 174.79-9.35L174.79-9.35Q172.74-9.35 171.14-8.6 169.54-7.85 169.54-5.95L169.54-5.95Q169.54-5 170.34-4.35 171.14-3.7 171.99-3.7L171.99-3.7Z" opacity="1" transform="matrix(1,0,0,1,0,0)" fill="#ffffff" class="wordmark-text-0" data-fill-palette-color="primary" id="text-0"></path></svg></g></svg></g></svg></g></svg></g><g><svg viewBox="0 0 176.53950129550074 141.9849272195122" height="141.9849272195122" width="176.53950129550074"><g><svg xmlns="http://www.w3.org/2000/svg" xmlns:xlink="http://www.w3.org/1999/xlink" version="1.1" x="0" y="0" viewBox="0 9.78600025177002 100.0003433227539 80.42699432373047" enable-background="new 0 0 100 100" xml:space="preserve" width="176.53950129550074" height="141.9849272195122" class="icon-icon-0" data-fill-palette-color="accent" id="icon-0"><path d="M49.942 52.994c13.552-0.488 27.103-0.977 40.653-1.465-2.527-4.177-3.159-7.831-7.989-8.461-7.229-0.94-14.458-1.883-21.688-2.826-14.023-1.827-28.05-3.654-42.075-5.48C20.101 36.792 39.724 53.361 49.942 52.994z" fill="#ffffff" data-fill-palette-color="accent"></path><path d="M0 9.786c4.391 7.257 26.615 23.072 32.953 23.886 17.33 2.231 34.657 4.46 51.986 6.688-3.393-5.607-4.18-9.35-10.312-10.959-8.904-2.341-17.812-4.683-26.717-7.023C31.94 18.182 15.97 13.984 0 9.786z" fill="#ffffff" data-fill-palette-color="accent"></path><path d="M63.108 66.207c10.413-2.219 20.826-4.439 31.241-6.66-2.028-3.346-2.034-5.359-5.827-5.189-6.158 0.273-12.314 0.549-18.471 0.822-11.343 0.506-22.686 1.014-34.028 1.518C37.298 58.064 54.94 67.947 63.108 66.207z" fill="#ffffff" data-fill-palette-color="accent"></path><path d="M87.682 90.213c5.725-3.719 7.262-7.721 10.519-13.807 3.651-6.824 1.257-7.844-2.821-14.596-0.417-0.688-5.842 0.232-6.453 0.904-0.745 0.818-0.248 5.455-0.294 6.496C88.315 76.211 87.998 83.213 87.682 90.213z" fill="#ffffff" data-fill-palette-color="accent"></path><path d="M86.35 63.447c-3.795 0.809-8.604 0.191-9.572 4.229-1.373 5.736-2.746 11.475-4.12 17.211C81.904 82.678 86.028 71.582 86.35 63.447z" fill="#ffffff" data-fill-palette-color="accent"></path><path d="M74.666 66.121c-9.148 1.953-8.956 4.611-12.879 13.18C68.007 78.711 73.811 71.941 74.666 66.121z" fill="#ffffff" data-fill-palette-color="accent"></path></svg></g></svg></g></svg></g><defs></defs></svg><rect width="395.52" height="91.9753841377719" fill="none" stroke="none" visibility="hidden"></rect></g></svg></g></svg>